<svg viewBox="0 0 900 500" xmlns="http://www.w3.org/2000/svg">
  <!-- Title -->
  <text x="450" y="30" font-size="24" font-weight="bold" text-anchor="middle" fill="#333">
    foldr Type Signature - Detailed Components
  </text>
  
  <!-- Main equation -->
  <text x="450" y="70" font-size="18" text-anchor="middle" fill="#000" font-family="serif">
    foldr : (A → B → B) → B → [A] → B
  </text>
  
  <!-- Function name -->
  <rect x="200" y="110" width="100" height="60" fill="#e3f2fd" stroke="#1976d2" stroke-width="2" rx="5"/>
  <text x="250" y="145" font-size="16" text-anchor="middle" fill="#000" font-weight="bold">foldr</text>
  <line x1="250" y1="80" x2="250" y2="110" stroke="#1976d2" stroke-width="2" marker-end="url(#arrowblue)"/>
  <text x="250" y="100" font-size="12" text-anchor="middle" fill="#1976d2" font-weight="bold">Function</text>
  
  <!-- Combining function -->
  <rect x="320" y="110" width="180" height="60" fill="#fff3e0" stroke="#f57c00" stroke-width="2" rx="5"/>
  <text x="410" y="135" font-size="14" text-anchor="middle" fill="#000" font-weight="bold">(A → B → B)</text>
  <text x="410" y="155" font-size="11" text-anchor="middle" fill="#666">Combining function</text>
  <line x1="370" y1="80" x2="370" y2="110" stroke="#f57c00" stroke-width="2" marker-end="url(#arroworange)"/>
  <text x="370" y="100" font-size="12" text-anchor="middle" fill="#f57c00" font-weight="bold">1st param</text>
  
  <!-- Initial value -->
  <rect x="520" y="110" width="80" height="60" fill="#e8f5e9" stroke="#388e3c" stroke-width="2" rx="5"/>
  <text x="560" y="135" font-size="16" text-anchor="middle" fill="#000" font-weight="bold">B</text>
  <text x="560" y="155" font-size="11" text-anchor="middle" fill="#666">Initial value</text>
  <line x1="535" y1="80" x2="535" y2="110" stroke="#388e3c" stroke-width="2" marker-end="url(#arrowgreen)"/>
  <text x="535" y="100" font-size="12" text-anchor="middle" fill="#388e3c" font-weight="bold">2nd param</text>
  
  <!-- Input list -->
  <rect x="620" y="110" width="80" height="60" fill="#f3e5f5" stroke="#7b1fa2" stroke-width="2" rx="5"/>
  <text x="660" y="135" font-size="16" text-anchor="middle" fill="#000" font-weight="bold">[A]</text>
  <text x="660" y="155" font-size="11" text-anchor="middle" fill="#666">Input list</text>
  <line x1="645" y1="80" x2="645" y2="110" stroke="#7b1fa2" stroke-width="2" marker-end="url(#arrowpurple)"/>
  <text x="645" y="100" font-size="12" text-anchor="middle" fill="#7b1fa2" font-weight="bold">3rd param</text>
  
  <!-- Detailed combining function breakdown -->
  <rect x="250" y="210" width="300" height="140" fill="#fff9e6" stroke="#f57c00" stroke-width="3" rx="8" stroke-dasharray="5,5"/>
  <text x="400" y="230" font-size="14" text-anchor="middle" fill="#f57c00" font-weight="bold">
    Combining Function Details: (A → B → B)
  </text>
  
  <!-- A: List element -->
  <rect x="270" y="250" width="70" height="45" fill="#ffe0b2" stroke="#ff6f00" stroke-width="2" rx="4"/>
  <text x="305" y="270" font-size="14" text-anchor="middle" fill="#000" font-weight="bold">A</text>
  <text x="305" y="287" font-size="10" text-anchor="middle" fill="#666">List element</text>
  
  <!-- Arrow 1 -->
  <line x1="340" y1="272" x2="365" y2="272" stroke="#000" stroke-width="2" marker-end="url(#arrowblack)"/>
  
  <!-- B: Accumulator -->
  <rect x="370" y="250" width="70" height="45" fill="#c8e6c9" stroke="#2e7d32" stroke-width="2" rx="4"/>
  <text x="405" y="270" font-size="14" text-anchor="middle" fill="#000" font-weight="bold">B</text>
  <text x="405" y="287" font-size="10" text-anchor="middle" fill="#666">Accumulator</text>
  
  <!-- Arrow 2 -->
  <line x1="440" y1="272" x2="465" y2="272" stroke="#000" stroke-width="2" marker-end="url(#arrowblack)"/>
  
  <!-- B: Result from combining function -->
  <rect x="470" y="250" width="70" height="45" fill="#ffcdd2" stroke="#c62828" stroke-width="2" rx="4"/>
  <text x="505" y="270" font-size="14" text-anchor="middle" fill="#000" font-weight="bold">B</text>
  <text x="505" y="287" font-size="10" text-anchor="middle" fill="#666">New result</text>
  
  <!-- Example -->
  <text x="400" y="320" font-size="11" text-anchor="middle" fill="#666" font-style="italic">
    Example: (x, acc) =&gt; x + acc
  </text>
  <text x="400" y="337" font-size="10" text-anchor="middle" fill="#888">
    Takes element x (type A) and accumulator (type B), returns new accumulator (type B)
  </text>
  
  <!-- Final Result from foldr -->
  <rect x="410" y="380" width="80" height="60" fill="#ffebee" stroke="#c62828" stroke-width="3" rx="5"/>
  <text x="450" y="405" font-size="18" text-anchor="middle" fill="#000" font-weight="bold">B</text>
  <text x="450" y="425" font-size="12" text-anchor="middle" fill="#666" font-weight="bold">Final Result</text>
  <line x1="720" y1="80" x2="720" y2="360" stroke="#c62828" stroke-width="2"/>
  <line x1="720" y1="360" x2="450" y2="360" stroke="#c62828" stroke-width="2"/>
  <line x1="450" y1="360" x2="450" y2="380" stroke="#c62828" stroke-width="2" marker-end="url(#arrowred)"/>
  <text x="720" y="100" font-size="12" text-anchor="middle" fill="#c62828" font-weight="bold">Returns</text>
  
  <!-- Legend -->
  <g transform="translate(650, 440)">
    <text x="0" y="0" font-size="10" fill="#666" font-weight="bold">Type Parameters:</text>
    <text x="0" y="15" font-size="9" fill="#666">• A = List element type</text>
    <text x="0" y="28" font-size="9" fill="#666">• B = Accumulator type</text>
  </g>
  
  <!-- Arrow markers -->
  <defs>
    <marker id="arrowblue" markerWidth="10" markerHeight="10" refX="9" refY="3" orient="auto" markerUnits="strokeWidth">
      <path d="M0,0 L0,6 L9,3 z" fill="#1976d2"/>
    </marker>
    <marker id="arroworange" markerWidth="10" markerHeight="10" refX="9" refY="3" orient="auto" markerUnits="strokeWidth">
      <path d="M0,0 L0,6 L9,3 z" fill="#f57c00"/>
    </marker>
    <marker id="arrowgreen" markerWidth="10" markerHeight="10" refX="9" refY="3" orient="auto" markerUnits="strokeWidth">
      <path d="M0,0 L0,6 L9,3 z" fill="#388e3c"/>
    </marker>
    <marker id="arrowpurple" markerWidth="10" markerHeight="10" refX="9" refY="3" orient="auto" markerUnits="strokeWidth">
      <path d="M0,0 L0,6 L9,3 z" fill="#7b1fa2"/>
    </marker>
    <marker id="arrowred" markerWidth="10" markerHeight="10" refX="9" refY="3" orient="auto" markerUnits="strokeWidth">
      <path d="M0,0 L0,6 L9,3 z" fill="#c62828"/>
    </marker>
    <marker id="arrowblack" markerWidth="10" markerHeight="10" refX="9" refY="3" orient="auto" markerUnits="strokeWidth">
      <path d="M0,0 L0,6 L9,3 z" fill="#000"/>
    </marker>
  </defs>
</svg>
