<?xml version="1.0" encoding="UTF-8" standalone="no"?><!DOCTYPE svg PUBLIC "-//W3C//DTD SVG 1.1//EN" "http://www.w3.org/Graphics/SVG/1.1/DTD/svg11.dtd"><!-- Generated by graphviz version 2.40.1 (20161225.0304)
 --><!-- Title: %0 Pages: 1 --><svg xmlns="http://www.w3.org/2000/svg" xmlns:xlink="http://www.w3.org/1999/xlink" width="818pt" height="682pt" viewBox="0.00 0.00 818.13 681.90">
<g id="graph0" class="graph" transform="scale(1 1) rotate(0) translate(4 677.8986)">
<title>%0</title>
<polygon fill="#ffffff" stroke="transparent" points="-4,4 -4,-677.8986 814.1267,-677.8986 814.1267,4 -4,4"/>
<!-- Rhttp://ojitha.github.io/contact.rdf#oj -->
<g id="node1" class="node">
<title>Rhttp://ojitha.github.io/contact.rdf#oj</title>
<g id="a_node1"><a xlink:href="http://ojitha.github.io/contact.rdf#oj" xlink:title="http://ojitha.github.io/contact.rdf#oj">
<ellipse fill="none" stroke="#0000ff" cx="417.7192" cy="-347.5088" rx="149.9188" ry="18"/>
<text text-anchor="middle" x="417.7192" y="-343.3088" font-family="Times,serif" font-size="14.00" fill="#000000">http://ojitha.github.io/contact.rdf#oj</text>
</a>
</g>
</g>
<!-- Rhttp://xmlns.com/foaf/0.1/Person -->
<g id="node2" class="node">
<title>Rhttp://xmlns.com/foaf/0.1/Person</title>
<g id="a_node2"><a xlink:href="http://xmlns.com/foaf/0.1/Person" xlink:title="foaf:Person">
<ellipse fill="none" stroke="#0000ff" cx="754.5794" cy="-347.5088" rx="55.5946" ry="18"/>
<text text-anchor="middle" x="754.5794" y="-343.3088" font-family="Times,serif" font-size="14.00" fill="#000000">foaf:Person</text>
</a>
</g>
</g>
<!-- Rhttp://ojitha.github.io/contact.rdf#oj&#45;&gt;Rhttp://xmlns.com/foaf/0.1/Person -->
<g id="edge1" class="edge">
<title>Rhttp://ojitha.github.io/contact.rdf#oj-&gt;Rhttp://xmlns.com/foaf/0.1/Person</title>
<path fill="none" stroke="#000000" d="M567.4327,-347.5088C609.7915,-347.5088 653.7491,-347.5088 688.4101,-347.5088"/>
<polygon fill="#000000" stroke="#000000" points="688.8564,-351.0089 698.8564,-347.5088 688.8563,-344.0089 688.8564,-351.0089"/>
<text text-anchor="middle" x="605.7629" y="-351.7088" font-family="Times,serif" font-size="14.00" fill="#000000">rdf:type</text>
</g>
<!-- LKumanayaka -->
<g id="node3" class="node">
<title>LKumanayaka</title>
<polygon fill="none" stroke="#000000" points="509.4614,-637.3986 509.4614,-673.3986 599.317,-673.3986 599.317,-637.3986 509.4614,-637.3986"/>
<text text-anchor="middle" x="554.3892" y="-651.1986" font-family="Times,serif" font-size="14.00" fill="#000000">Kumanayaka</text>
</g>
<!-- Rhttp://ojitha.github.io/contact.rdf#oj&#45;&gt;LKumanayaka -->
<g id="edge2" class="edge">
<title>Rhttp://ojitha.github.io/contact.rdf#oj-&gt;LKumanayaka</title>
<path fill="none" stroke="#000000" d="M425.8592,-365.8466C448.8854,-417.72 514.5915,-565.7424 542.0717,-627.6497"/>
<polygon fill="#000000" stroke="#000000" points="539.0355,-629.4368 546.2918,-637.1568 545.4335,-626.5968 539.0355,-629.4368"/>
<text text-anchor="middle" x="433.8188" y="-500.9482" font-family="Times,serif" font-size="14.00" fill="#000000">foaf:family_name</text>
</g>
<!-- LOjitha -->
<g id="node4" class="node">
<title>LOjitha</title>
<polygon fill="none" stroke="#000000" points="186.7154,-597.5708 186.7154,-633.5708 240.7154,-633.5708 240.7154,-597.5708 186.7154,-597.5708"/>
<text text-anchor="middle" x="213.7119" y="-611.3708" font-family="Times,serif" font-size="14.00" fill="#000000">Ojitha</text>
</g>
<!-- Rhttp://ojitha.github.io/contact.rdf#oj&#45;&gt;LOjitha -->
<g id="edge3" class="edge">
<title>Rhttp://ojitha.github.io/contact.rdf#oj-&gt;LOjitha</title>
<path fill="none" stroke="#000000" d="M404.0172,-365.5133C368.8253,-411.7556 275.1356,-534.8644 233.7949,-589.1862"/>
<polygon fill="#000000" stroke="#000000" points="230.8973,-587.2143 227.6264,-597.2916 236.4677,-591.4536 230.8973,-587.2143"/>
<text text-anchor="middle" x="274.9803" y="-481.5498" font-family="Times,serif" font-size="14.00" fill="#000000">foaf:givenname</text>
</g>
<!-- Rhttp://ojitha.github.io/ -->
<g id="node5" class="node">
<title>Rhttp://ojitha.github.io/</title>
<g id="a_node5"><a xlink:href="http://ojitha.github.io/" xlink:title="http://ojitha.github.io/">
<ellipse fill="none" stroke="#0000ff" cx="95.8119" cy="-248.2591" rx="95.6242" ry="18"/>
<text text-anchor="middle" x="95.8119" y="-244.0591" font-family="Times,serif" font-size="14.00" fill="#000000">http://ojitha.github.io/</text>
</a>
</g>
</g>
<!-- Rhttp://ojitha.github.io/contact.rdf#oj&#45;&gt;Rhttp://ojitha.github.io/ -->
<g id="edge4" class="edge">
<title>Rhttp://ojitha.github.io/contact.rdf#oj-&gt;Rhttp://ojitha.github.io/</title>
<path fill="none" stroke="#000000" d="M363.112,-330.6724C305.5096,-312.9126 215.0146,-285.0114 155.5462,-266.6763"/>
<polygon fill="#000000" stroke="#000000" points="156.5013,-263.3082 145.9139,-263.7064 154.4388,-269.9975 156.5013,-263.3082"/>
<text text-anchor="middle" x="217.3487" y="-302.8743" font-family="Times,serif" font-size="14.00" fill="#000000">foaf:homepage</text>
</g>
<!-- Rmailto:ojithak@gmail.com -->
<g id="node6" class="node">
<title>Rmailto:ojithak@gmail.com</title>
<g id="a_node6"><a xlink:href="mailto:ojithak@gmail.com" xlink:title="mailto:ojithak@gmail.com">
<ellipse fill="none" stroke="#0000ff" cx="487.7103" cy="-18" rx="115.302" ry="18"/>
<text text-anchor="middle" x="487.7103" y="-13.8" font-family="Times,serif" font-size="14.00" fill="#000000">mailto:ojithak@gmail.com</text>
</a>
</g>
</g>
<!-- Rhttp://ojitha.github.io/contact.rdf#oj&#45;&gt;Rmailto:ojithak@gmail.com -->
<g id="edge5" class="edge">
<title>Rhttp://ojitha.github.io/contact.rdf#oj-&gt;Rmailto:ojithak@gmail.com</title>
<path fill="none" stroke="#000000" d="M421.5819,-329.3236C433.1735,-274.7517 467.7215,-112.1046 481.7201,-46.2008"/>
<polygon fill="#000000" stroke="#000000" points="485.2053,-46.638 483.8595,-36.129 478.358,-45.1835 485.2053,-46.638"/>
<text text-anchor="middle" x="422.4925" y="-191.9622" font-family="Times,serif" font-size="14.00" fill="#000000">foaf:mbox</text>
</g>
</g>
</svg>