<?xml version="1.0" encoding="UTF-8" standalone="no"?><!DOCTYPE svg PUBLIC "-//W3C//DTD SVG 1.1//EN" "http://www.w3.org/Graphics/SVG/1.1/DTD/svg11.dtd"><!-- Generated by graphviz version 2.40.1 (20161225.0304)
 --><!-- Title: template Pages: 1 --><svg xmlns="http://www.w3.org/2000/svg" xmlns:xlink="http://www.w3.org/1999/xlink" width="1896pt" height="290pt" viewBox="0.00 0.00 1895.61 290.09">
<g id="graph0" class="graph" transform="scale(1 1) rotate(0) translate(4 286.0939)">
<title>template</title>
<polygon fill="#ffffff" stroke="transparent" points="-4,4 -4,-286.0939 1891.6075,-286.0939 1891.6075,4 -4,4"/>
<!-- VPC -->
<g id="node1" class="node">
<title>VPC</title>
<ellipse fill="none" stroke="#000000" cx="581.5735" cy="-29.4156" rx="92.1548" ry="29.3315"/>
<text text-anchor="middle" x="581.5735" y="-33.6156" font-family="Times,serif" font-size="14.00" fill="#000000">VPC</text>
<text text-anchor="middle" x="581.5735" y="-16.8156" font-family="Times,serif" font-size="14.00" fill="#000000">&lt;AWS::EC2::VPC&gt;</text>
</g>
<!-- IPv6Cidr -->
<g id="node2" class="node">
<title>IPv6Cidr</title>
<ellipse fill="none" stroke="#000000" cx="790.5735" cy="-141.0469" rx="133.645" ry="29.3315"/>
<text text-anchor="middle" x="790.5735" y="-145.2469" font-family="Times,serif" font-size="14.00" fill="#000000">IPv6Cidr</text>
<text text-anchor="middle" x="790.5735" y="-128.4469" font-family="Times,serif" font-size="14.00" fill="#000000">&lt;AWS::EC2::VPCCidrBlock&gt;</text>
</g>
<!-- IPv6Cidr&#45;&gt;VPC -->
<g id="edge1" class="edge">
<title>IPv6Cidr-&gt;VPC</title>
<path fill="none" stroke="#000000" d="M739.4463,-113.7388C708.759,-97.3481 669.6777,-76.4739 638.0771,-59.5954"/>
<polygon fill="#000000" stroke="#000000" points="639.4225,-56.3461 628.9529,-54.722 636.1246,-62.5206 639.4225,-56.3461"/>
<text text-anchor="middle" x="708.6794" y="-81.0313" font-family="Times,serif" font-size="14.00" fill="#000000">Ref</text>
</g>
<!-- PublicSubnet1 -->
<g id="node3" class="node">
<title>PublicSubnet1</title>
<ellipse fill="none" stroke="#000000" cx="538.5735" cy="-141.0469" rx="100.647" ry="29.3315"/>
<text text-anchor="middle" x="538.5735" y="-145.2469" font-family="Times,serif" font-size="14.00" fill="#000000">PublicSubnet1</text>
<text text-anchor="middle" x="538.5735" y="-128.4469" font-family="Times,serif" font-size="14.00" fill="#000000">&lt;AWS::EC2::Subnet&gt;</text>
</g>
<!-- PublicSubnet1&#45;&gt;VPC -->
<g id="edge2" class="edge">
<title>PublicSubnet1-&gt;VPC</title>
<path fill="none" stroke="#000000" d="M534.6443,-111.4489C534.2544,-100.2679 535.1704,-87.6426 539.3617,-76.8313 540.8855,-72.9007 542.8963,-69.0861 545.2146,-65.4406"/>
<polygon fill="#000000" stroke="#000000" points="548.0968,-67.4275 551.0974,-57.2664 542.4152,-63.3386 548.0968,-67.4275"/>
<text text-anchor="middle" x="548.6794" y="-81.0313" font-family="Times,serif" font-size="14.00" fill="#000000">Ref</text>
</g>
<!-- PublicSubnet1&#45;&gt;VPC -->
<g id="edge3" class="edge">
<title>PublicSubnet1-&gt;VPC</title>
<path fill="none" stroke="#000000" d="M551.9695,-111.874C554.5872,-105.8803 557.2412,-99.5828 559.5735,-93.6313 562.7568,-85.5084 565.9387,-76.7134 568.8539,-68.3142"/>
<polygon fill="#000000" stroke="#000000" points="572.2175,-69.2947 572.1377,-58.7001 565.5933,-67.032 572.2175,-69.2947"/>
<text text-anchor="middle" x="583.6233" y="-81.0313" font-family="Times,serif" font-size="14.00" fill="#000000">GetAtt</text>
</g>
<!-- PublicSubnet2 -->
<g id="node4" class="node">
<title>PublicSubnet2</title>
<ellipse fill="none" stroke="#000000" cx="100.5735" cy="-141.0469" rx="100.647" ry="29.3315"/>
<text text-anchor="middle" x="100.5735" y="-145.2469" font-family="Times,serif" font-size="14.00" fill="#000000">PublicSubnet2</text>
<text text-anchor="middle" x="100.5735" y="-128.4469" font-family="Times,serif" font-size="14.00" fill="#000000">&lt;AWS::EC2::Subnet&gt;</text>
</g>
<!-- PublicSubnet2&#45;&gt;VPC -->
<g id="edge4" class="edge">
<title>PublicSubnet2-&gt;VPC</title>
<path fill="none" stroke="#000000" d="M174.4263,-121.0188C186.1787,-117.8598 198.2055,-114.6436 209.5735,-111.6313 268.9638,-95.8938 283.4768,-90.5675 343.3617,-76.8313 392.0798,-65.6564 446.7537,-54.6645 491.4229,-46.0818"/>
<polygon fill="#000000" stroke="#000000" points="492.2153,-49.4938 501.3794,-44.1768 490.8998,-42.6185 492.2153,-49.4938"/>
<text text-anchor="middle" x="353.6794" y="-81.0313" font-family="Times,serif" font-size="14.00" fill="#000000">Ref</text>
</g>
<!-- PublicSubnet2&#45;&gt;VPC -->
<g id="edge5" class="edge">
<title>PublicSubnet2-&gt;VPC</title>
<path fill="none" stroke="#000000" d="M146.2375,-114.7619C171.4805,-101.3713 203.853,-86.018 234.4739,-76.8313 315.1226,-52.6354 410.0532,-40.7425 480.233,-34.922"/>
<polygon fill="#000000" stroke="#000000" points="480.7149,-38.3947 490.4032,-34.1065 480.1554,-31.4171 480.7149,-38.3947"/>
<text text-anchor="middle" x="253.6233" y="-81.0313" font-family="Times,serif" font-size="14.00" fill="#000000">GetAtt</text>
</g>
<!-- PrivateSubnet1 -->
<g id="node5" class="node">
<title>PrivateSubnet1</title>
<ellipse fill="none" stroke="#000000" cx="1299.5735" cy="-141.0469" rx="100.647" ry="29.3315"/>
<text text-anchor="middle" x="1299.5735" y="-145.2469" font-family="Times,serif" font-size="14.00" fill="#000000">PrivateSubnet1</text>
<text text-anchor="middle" x="1299.5735" y="-128.4469" font-family="Times,serif" font-size="14.00" fill="#000000">&lt;AWS::EC2::Subnet&gt;</text>
</g>
<!-- PrivateSubnet1&#45;&gt;VPC -->
<g id="edge6" class="edge">
<title>PrivateSubnet1-&gt;VPC</title>
<path fill="none" stroke="#000000" d="M1237.2106,-117.7306C1197.0428,-103.6614 1143.3916,-86.6188 1094.5735,-76.8313 953.9002,-48.6278 788.1023,-37.1523 683.8972,-32.5146"/>
<polygon fill="#000000" stroke="#000000" points="683.8372,-29.0089 673.6954,-32.0737 683.5349,-36.0023 683.8372,-29.0089"/>
<text text-anchor="middle" x="1166.6794" y="-81.0313" font-family="Times,serif" font-size="14.00" fill="#000000">Ref</text>
</g>
<!-- PrivateSubnet1&#45;&gt;VPC -->
<g id="edge7" class="edge">
<title>PrivateSubnet1-&gt;VPC</title>
<path fill="none" stroke="#000000" d="M1227.7023,-120.3837C1215.063,-117.1642 1201.9831,-114.0942 1189.5735,-111.6313 1129.2932,-99.6675 1113.3869,-101.7832 1052.4739,-93.6313 922.279,-76.2075 771.9044,-55.6206 676.7981,-42.543"/>
<polygon fill="#000000" stroke="#000000" points="677.0093,-39.0392 666.6256,-41.1439 676.0554,-45.9739 677.0093,-39.0392"/>
<text text-anchor="middle" x="1070.6233" y="-81.0313" font-family="Times,serif" font-size="14.00" fill="#000000">GetAtt</text>
</g>
<!-- PrivateSubnet2 -->
<g id="node6" class="node">
<title>PrivateSubnet2</title>
<ellipse fill="none" stroke="#000000" cx="319.5735" cy="-141.0469" rx="100.647" ry="29.3315"/>
<text text-anchor="middle" x="319.5735" y="-145.2469" font-family="Times,serif" font-size="14.00" fill="#000000">PrivateSubnet2</text>
<text text-anchor="middle" x="319.5735" y="-128.4469" font-family="Times,serif" font-size="14.00" fill="#000000">&lt;AWS::EC2::Subnet&gt;</text>
</g>
<!-- PrivateSubnet2&#45;&gt;VPC -->
<g id="edge8" class="edge">
<title>PrivateSubnet2-&gt;VPC</title>
<path fill="none" stroke="#000000" d="M377.9327,-116.974C395.8109,-109.5454 415.5219,-101.301 433.5735,-93.6313 461.2391,-81.8768 491.719,-68.6921 517.7916,-57.3422"/>
<polygon fill="#000000" stroke="#000000" points="519.4149,-60.4528 527.1845,-53.2497 516.6188,-54.0354 519.4149,-60.4528"/>
<text text-anchor="middle" x="480.6794" y="-81.0313" font-family="Times,serif" font-size="14.00" fill="#000000">Ref</text>
</g>
<!-- PrivateSubnet2&#45;&gt;VPC -->
<g id="edge9" class="edge">
<title>PrivateSubnet2-&gt;VPC</title>
<path fill="none" stroke="#000000" d="M345.1684,-112.5844C357.9427,-99.9481 374.3142,-85.9119 391.4739,-76.8313 420.7727,-61.3269 455.3129,-50.7556 486.8582,-43.6084"/>
<polygon fill="#000000" stroke="#000000" points="487.9567,-46.9514 496.9845,-41.4063 486.4692,-40.1113 487.9567,-46.9514"/>
<text text-anchor="middle" x="410.6233" y="-81.0313" font-family="Times,serif" font-size="14.00" fill="#000000">GetAtt</text>
</g>
<!-- IGW -->
<g id="node7" class="node">
<title>IGW</title>
<ellipse fill="none" stroke="#000000" cx="1748.5735" cy="-29.4156" rx="139.0681" ry="29.3315"/>
<text text-anchor="middle" x="1748.5735" y="-33.6156" font-family="Times,serif" font-size="14.00" fill="#000000">IGW</text>
<text text-anchor="middle" x="1748.5735" y="-16.8156" font-family="Times,serif" font-size="14.00" fill="#000000">&lt;AWS::EC2::InternetGateway&gt;</text>
</g>
<!-- IGWAttachment -->
<g id="node8" class="node">
<title>IGWAttachment</title>
<ellipse fill="none" stroke="#000000" cx="1591.5735" cy="-141.0469" rx="173.8746" ry="29.3315"/>
<text text-anchor="middle" x="1591.5735" y="-145.2469" font-family="Times,serif" font-size="14.00" fill="#000000">IGWAttachment</text>
<text text-anchor="middle" x="1591.5735" y="-128.4469" font-family="Times,serif" font-size="14.00" fill="#000000">&lt;AWS::EC2::VPCGatewayAttachment&gt;</text>
</g>
<!-- IGWAttachment&#45;&gt;VPC -->
<g id="edge10" class="edge">
<title>IGWAttachment-&gt;VPC</title>
<path fill="none" stroke="#000000" d="M1466.2804,-120.6374C1447.2856,-117.5894 1427.9136,-114.5069 1409.5735,-111.6313 1307.8698,-95.685 1282.8409,-88.634 1180.5735,-76.8313 1006.1183,-56.6973 802.08,-42.5394 682.8049,-35.2044"/>
<polygon fill="#000000" stroke="#000000" points="682.7895,-31.697 672.5946,-34.5805 682.3625,-38.684 682.7895,-31.697"/>
<text text-anchor="middle" x="1308.6794" y="-81.0313" font-family="Times,serif" font-size="14.00" fill="#000000">Ref</text>
</g>
<!-- IGWAttachment&#45;&gt;IGW -->
<g id="edge11" class="edge">
<title>IGWAttachment-&gt;IGW</title>
<path fill="none" stroke="#000000" d="M1632.0049,-112.2991C1652.9513,-97.4056 1678.6692,-79.1195 1700.6144,-63.5159"/>
<polygon fill="#000000" stroke="#000000" points="1702.7009,-66.3269 1708.8226,-57.6796 1698.6445,-60.622 1702.7009,-66.3269"/>
<text text-anchor="middle" x="1688.6794" y="-81.0313" font-family="Times,serif" font-size="14.00" fill="#000000">Ref</text>
</g>
<!-- RT -->
<g id="node9" class="node">
<title>RT</title>
<ellipse fill="none" stroke="#000000" cx="1061.5735" cy="-141.0469" rx="119.02" ry="29.3315"/>
<text text-anchor="middle" x="1061.5735" y="-145.2469" font-family="Times,serif" font-size="14.00" fill="#000000">RT</text>
<text text-anchor="middle" x="1061.5735" y="-128.4469" font-family="Times,serif" font-size="14.00" fill="#000000">&lt;AWS::EC2::RouteTable&gt;</text>
</g>
<!-- RT&#45;&gt;VPC -->
<g id="edge12" class="edge">
<title>RT-&gt;VPC</title>
<path fill="none" stroke="#000000" d="M974.6491,-120.8313C887.1133,-100.4736 752.9492,-69.2717 666.2297,-49.1037"/>
<polygon fill="#000000" stroke="#000000" points="666.953,-45.6786 656.4201,-46.8224 665.3673,-52.4967 666.953,-45.6786"/>
<text text-anchor="middle" x="859.6794" y="-81.0313" font-family="Times,serif" font-size="14.00" fill="#000000">Ref</text>
</g>
<!-- DefaultPublicRoutes -->
<g id="node10" class="node">
<title>DefaultPublicRoutes</title>
<ellipse fill="none" stroke="#000000" cx="1591.5735" cy="-252.6782" rx="96.9457" ry="29.3315"/>
<text text-anchor="middle" x="1591.5735" y="-256.8782" font-family="Times,serif" font-size="14.00" fill="#000000">DefaultPublicRoutes</text>
<text text-anchor="middle" x="1591.5735" y="-240.0782" font-family="Times,serif" font-size="14.00" fill="#000000">&lt;AWS::EC2::Route&gt;</text>
</g>
<!-- DefaultPublicRoutes&#45;&gt;IGW -->
<g id="edge15" class="edge">
<title>DefaultPublicRoutes-&gt;IGW</title>
<path fill="none" stroke="#000000" d="M1673.837,-236.9927C1711.2776,-225.3031 1752.1526,-205.1151 1774.5735,-170.4626 1794.3462,-139.9029 1783.0604,-98.2538 1769.7388,-68.144"/>
<polygon fill="#000000" stroke="#000000" points="1772.7797,-66.3837 1765.3788,-58.8022 1766.4365,-69.3442 1772.7797,-66.3837"/>
<text text-anchor="middle" x="1794.6794" y="-136.8469" font-family="Times,serif" font-size="14.00" fill="#000000">Ref</text>
</g>
<!-- DefaultPublicRoutes&#45;&gt;IGWAttachment -->
<g id="edge13" class="edge">
<title>DefaultPublicRoutes-&gt;IGWAttachment</title>
<path fill="none" stroke="#000000" d="M1591.5735,-223.0562C1591.5735,-210.1881 1591.5735,-194.9179 1591.5735,-181.0631"/>
<polygon fill="#000000" stroke="#000000" points="1595.0736,-180.8074 1591.5735,-170.8074 1588.0736,-180.8074 1595.0736,-180.8074"/>
<text text-anchor="middle" x="1624.617" y="-192.6626" font-family="Times,serif" font-size="14.00" fill="#000000">DependsOn</text>
</g>
<!-- DefaultPublicRoutes&#45;&gt;RT -->
<g id="edge14" class="edge">
<title>DefaultPublicRoutes-&gt;RT</title>
<path fill="none" stroke="#000000" d="M1510.2224,-236.6397C1428.9311,-220.4721 1300.4341,-194.5337 1189.5735,-170.4626 1179.442,-168.2627 1168.8716,-165.9164 1158.3377,-163.5449"/>
<polygon fill="#000000" stroke="#000000" points="1158.7907,-160.0591 1148.265,-161.2676 1157.247,-166.8867 1158.7907,-160.0591"/>
<text text-anchor="middle" x="1353.6794" y="-192.6626" font-family="Times,serif" font-size="14.00" fill="#000000">Ref</text>
</g>
<!-- PublicSub1NetRTAssociation -->
<g id="node11" class="node">
<title>PublicSub1NetRTAssociation</title>
<ellipse fill="none" stroke="#000000" cx="723.5735" cy="-252.6782" rx="193.4902" ry="29.3315"/>
<text text-anchor="middle" x="723.5735" y="-256.8782" font-family="Times,serif" font-size="14.00" fill="#000000">PublicSub1NetRTAssociation</text>
<text text-anchor="middle" x="723.5735" y="-240.0782" font-family="Times,serif" font-size="14.00" fill="#000000">&lt;AWS::EC2::SubnetRouteTableAssociation&gt;</text>
</g>
<!-- PublicSub1NetRTAssociation&#45;&gt;PublicSubnet1 -->
<g id="edge17" class="edge">
<title>PublicSub1NetRTAssociation-&gt;PublicSubnet1</title>
<path fill="none" stroke="#000000" d="M675.9314,-223.9304C650.0574,-208.3177 618.0049,-188.9768 591.3719,-172.9061"/>
<polygon fill="#000000" stroke="#000000" points="592.9346,-169.7613 582.5644,-167.5916 589.3181,-175.7547 592.9346,-169.7613"/>
<text text-anchor="middle" x="651.6794" y="-192.6626" font-family="Times,serif" font-size="14.00" fill="#000000">Ref</text>
</g>
<!-- PublicSub1NetRTAssociation&#45;&gt;RT -->
<g id="edge16" class="edge">
<title>PublicSub1NetRTAssociation-&gt;RT</title>
<path fill="none" stroke="#000000" d="M804.5329,-225.9397C857.7598,-208.3605 927.1519,-185.4424 980.4183,-167.85"/>
<polygon fill="#000000" stroke="#000000" points="981.7713,-171.0892 990.1692,-164.6296 979.576,-164.4424 981.7713,-171.0892"/>
<text text-anchor="middle" x="922.6794" y="-192.6626" font-family="Times,serif" font-size="14.00" fill="#000000">Ref</text>
</g>
<!-- PublicSub2NetRTAssociation -->
<g id="node12" class="node">
<title>PublicSub2NetRTAssociation</title>
<ellipse fill="none" stroke="#000000" cx="310.5735" cy="-252.6782" rx="193.4902" ry="29.3315"/>
<text text-anchor="middle" x="310.5735" y="-256.8782" font-family="Times,serif" font-size="14.00" fill="#000000">PublicSub2NetRTAssociation</text>
<text text-anchor="middle" x="310.5735" y="-240.0782" font-family="Times,serif" font-size="14.00" fill="#000000">&lt;AWS::EC2::SubnetRouteTableAssociation&gt;</text>
</g>
<!-- PublicSub2NetRTAssociation&#45;&gt;PublicSubnet2 -->
<g id="edge19" class="edge">
<title>PublicSub2NetRTAssociation-&gt;PublicSubnet2</title>
<path fill="none" stroke="#000000" d="M257.3102,-224.3646C227.0069,-208.2561 189.039,-188.0732 158.0621,-171.6066"/>
<polygon fill="#000000" stroke="#000000" points="159.58,-168.4497 149.1072,-166.8464 156.2943,-174.6307 159.58,-168.4497"/>
<text text-anchor="middle" x="228.6794" y="-192.6626" font-family="Times,serif" font-size="14.00" fill="#000000">Ref</text>
</g>
<!-- PublicSub2NetRTAssociation&#45;&gt;RT -->
<g id="edge18" class="edge">
<title>PublicSub2NetRTAssociation-&gt;RT</title>
<path fill="none" stroke="#000000" d="M405.741,-226.995C460.7356,-213.2192 531.4751,-197.301 595.3617,-188.4626 744.4706,-167.8339 784.5073,-191.3977 933.5735,-170.4626 945.0398,-168.8522 956.9938,-166.7233 968.7906,-164.3449"/>
<polygon fill="#000000" stroke="#000000" points="969.5713,-167.7575 978.6489,-162.2942 968.1457,-160.9042 969.5713,-167.7575"/>
<text text-anchor="middle" x="604.6794" y="-192.6626" font-family="Times,serif" font-size="14.00" fill="#000000">Ref</text>
</g>
</g>
</svg>