<?xml version="1.0" encoding="UTF-8" standalone="no"?><!DOCTYPE svg PUBLIC "-//W3C//DTD SVG 1.1//EN" "http://www.w3.org/Graphics/SVG/1.1/DTD/svg11.dtd"><!-- Generated by graphviz version 2.40.1 (20161225.0304)
 --><!-- Title: %0 Pages: 1 --><svg xmlns="http://www.w3.org/2000/svg" xmlns:xlink="http://www.w3.org/1999/xlink" width="230pt" height="222pt" viewBox="0.00 0.00 229.81 221.60">
<g id="graph0" class="graph" transform="scale(1 1) rotate(0) translate(4 217.6)">
<title>%0</title>
<polygon fill="#ffffff" stroke="transparent" points="-4,4 -4,-217.6 225.8119,-217.6 225.8119,4 -4,4"/>
<!-- Rhttp://www.w3.org/2000/01/rdf&#45;schema#Resource -->
<g id="node1" class="node">
<title>Rhttp://www.w3.org/2000/01/rdf-schema#Resource</title>
<g id="a_node1"><a xlink:href="http://www.w3.org/2000/01/rdf-schema#Resource" xlink:title="rdfs:Resource">
<ellipse fill="none" stroke="#0000ff" cx="69.4949" cy="-106.8" rx="64.8234" ry="18"/>
<text text-anchor="middle" x="69.4949" y="-102.6" font-family="Times,serif" font-size="14.00" fill="#000000">rdfs:Resource</text>
</a>
</g>
</g>
<!-- Rhttp://www.w3.org/2000/01/rdf&#45;schema#Class -->
<g id="node2" class="node">
<title>Rhttp://www.w3.org/2000/01/rdf-schema#Class</title>
<g id="a_node2"><a xlink:href="http://www.w3.org/2000/01/rdf-schema#Class" xlink:title="rdfs:Class">
<ellipse fill="none" stroke="#0000ff" cx="69.4949" cy="-18" rx="49.8117" ry="18"/>
<text text-anchor="middle" x="69.4949" y="-13.8" font-family="Times,serif" font-size="14.00" fill="#000000">rdfs:Class</text>
</a>
</g>
</g>
<!-- Rhttp://www.w3.org/2000/01/rdf&#45;schema#Resource&#45;&gt;Rhttp://www.w3.org/2000/01/rdf&#45;schema#Class -->
<g id="edge1" class="edge">
<title>Rhttp://www.w3.org/2000/01/rdf-schema#Resource-&gt;Rhttp://www.w3.org/2000/01/rdf-schema#Class</title>
<path fill="none" stroke="#000000" d="M29.1122,-92.5415C10.1249,-83.3887 -6.4543,-70.1887 3.1779,-54 7.9004,-46.0629 15.0513,-39.7672 22.935,-34.8107"/>
<polygon fill="#000000" stroke="#000000" points="24.6545,-37.8593 31.6969,-29.9438 21.2554,-31.74 24.6545,-37.8593"/>
<text text-anchor="middle" x="25.6534" y="-58.2" font-family="Times,serif" font-size="14.00" fill="#000000">rdf:type</text>
</g>
<!-- Rhttp://www.w3.org/2000/01/rdf&#45;schema#Class&#45;&gt;Rhttp://www.w3.org/2000/01/rdf&#45;schema#Resource -->
<g id="edge3" class="edge">
<title>Rhttp://www.w3.org/2000/01/rdf-schema#Class-&gt;Rhttp://www.w3.org/2000/01/rdf-schema#Resource</title>
<path fill="none" stroke="#000000" d="M69.4949,-36.072C69.4949,-48.2243 69.4949,-64.4958 69.4949,-78.368"/>
<polygon fill="#000000" stroke="#000000" points="65.995,-78.4005 69.4949,-88.4006 72.995,-78.4006 65.995,-78.4005"/>
<text text-anchor="middle" x="114.5945" y="-58.2" font-family="Times,serif" font-size="14.00" fill="#000000">rdfs:subClassOf</text>
</g>
<!-- Rhttp://www.w3.org/2000/01/rdf&#45;schema#Class&#45;&gt;Rhttp://www.w3.org/2000/01/rdf&#45;schema#Class -->
<g id="edge2" class="edge">
<title>Rhttp://www.w3.org/2000/01/rdf-schema#Class-&gt;Rhttp://www.w3.org/2000/01/rdf-schema#Class</title>
<path fill="none" stroke="#000000" d="M113.7423,-26.2319C126.9069,-25.9861 137.1505,-23.2422 137.1505,-18 137.1505,-14.1912 131.743,-11.7012 123.7365,-10.5301"/>
<polygon fill="#000000" stroke="#000000" points="123.9794,-7.0385 113.7423,-9.7681 123.4472,-14.0183 123.9794,-7.0385"/>
<text text-anchor="middle" x="159.309" y="-13.8" font-family="Times,serif" font-size="14.00" fill="#000000">rdf:type</text>
</g>
<!-- Rhttp://www.w3.org/1999/02/22&#45;rdf&#45;syntax&#45;ns#Property -->
<g id="node3" class="node">
<title>Rhttp://www.w3.org/1999/02/22-rdf-syntax-ns#Property</title>
<g id="a_node3"><a xlink:href="http://www.w3.org/1999/02/22-rdf-syntax-ns#Property" xlink:title="rdf:Property">
<ellipse fill="none" stroke="#0000ff" cx="121.4949" cy="-195.6" rx="58.4648" ry="18"/>
<text text-anchor="middle" x="121.4949" y="-191.4" font-family="Times,serif" font-size="14.00" fill="#000000">rdf:Property</text>
</a>
</g>
</g>
<!-- Rhttp://www.w3.org/1999/02/22&#45;rdf&#45;syntax&#45;ns#Property&#45;&gt;Rhttp://www.w3.org/2000/01/rdf&#45;schema#Resource -->
<g id="edge5" class="edge">
<title>Rhttp://www.w3.org/1999/02/22-rdf-syntax-ns#Property-&gt;Rhttp://www.w3.org/2000/01/rdf-schema#Resource</title>
<path fill="none" stroke="#000000" d="M90.0629,-180.3576C82.2141,-174.9477 74.7669,-168.0524 70.2957,-159.6 66.3773,-152.1927 65.155,-143.3436 65.203,-135.0267"/>
<polygon fill="#000000" stroke="#000000" points="68.7036,-135.1244 65.8359,-124.9251 61.7173,-134.6867 68.7036,-135.1244"/>
<text text-anchor="middle" x="115.5945" y="-147" font-family="Times,serif" font-size="14.00" fill="#000000">rdfs:subClassOf</text>
</g>
<!-- Rhttp://www.w3.org/1999/02/22&#45;rdf&#45;syntax&#45;ns#Property&#45;&gt;Rhttp://www.w3.org/2000/01/rdf&#45;schema#Class -->
<g id="edge4" class="edge">
<title>Rhttp://www.w3.org/1999/02/22-rdf-syntax-ns#Property-&gt;Rhttp://www.w3.org/2000/01/rdf-schema#Class</title>
<path fill="none" stroke="#000000" d="M145.6361,-179.0341C151.618,-173.6031 157.2427,-167.028 160.4949,-159.6 179.3186,-116.6069 186.8808,-92.814 160.4949,-54 152.1908,-41.7846 139.0321,-33.7142 125.2736,-28.3821"/>
<polygon fill="#000000" stroke="#000000" points="126.2995,-25.034 115.7049,-25.1109 124.035,-31.6576 126.2995,-25.034"/>
<text text-anchor="middle" x="199.6534" y="-102.6" font-family="Times,serif" font-size="14.00" fill="#000000">rdf:type</text>
</g>
</g>
</svg>