<?xml version="1.0" encoding="UTF-8" standalone="no"?><!DOCTYPE svg PUBLIC "-//W3C//DTD SVG 1.1//EN" "http://www.w3.org/Graphics/SVG/1.1/DTD/svg11.dtd"><!-- Generated by graphviz version 2.40.1 (20161225.0304)
 --><!-- Title: %0 Pages: 1 --><svg xmlns="http://www.w3.org/2000/svg" xmlns:xlink="http://www.w3.org/1999/xlink" width="441pt" height="222pt" viewBox="0.00 0.00 440.86 221.60">
<g id="graph0" class="graph" transform="scale(1 1) rotate(0) translate(4 217.6)">
<title>%0</title>
<polygon fill="#ffffff" stroke="transparent" points="-4,4 -4,-217.6 436.8607,-217.6 436.8607,4 -4,4"/>
<!-- Rhttp://www.w3.org/2000/01/rdf&#45;schema#Resource -->
<g id="node1" class="node">
<title>Rhttp://www.w3.org/2000/01/rdf-schema#Resource</title>
<g id="a_node1"><a xlink:href="http://www.w3.org/2000/01/rdf-schema#Resource" xlink:title="rdfs:Resource">
<ellipse fill="none" stroke="#0000ff" cx="64.6615" cy="-106.8" rx="64.8234" ry="18"/>
<text text-anchor="middle" x="64.6615" y="-102.6" font-family="Times,serif" font-size="14.00" fill="#000000">rdfs:Resource</text>
</a>
</g>
</g>
<!-- Rhttp://www.w3.org/2000/01/rdf&#45;schema#Class -->
<g id="node2" class="node">
<title>Rhttp://www.w3.org/2000/01/rdf-schema#Class</title>
<g id="a_node2"><a xlink:href="http://www.w3.org/2000/01/rdf-schema#Class" xlink:title="rdfs:Class">
<ellipse fill="none" stroke="#0000ff" cx="145.6615" cy="-18" rx="49.8117" ry="18"/>
<text text-anchor="middle" x="145.6615" y="-13.8" font-family="Times,serif" font-size="14.00" fill="#000000">rdfs:Class</text>
</a>
</g>
</g>
<!-- Rhttp://www.w3.org/2000/01/rdf&#45;schema#Resource&#45;&gt;Rhttp://www.w3.org/2000/01/rdf&#45;schema#Class -->
<g id="edge1" class="edge">
<title>Rhttp://www.w3.org/2000/01/rdf-schema#Resource-&gt;Rhttp://www.w3.org/2000/01/rdf-schema#Class</title>
<path fill="none" stroke="#000000" d="M38.4931,-90.2964C25.4135,-79.9561 14.1409,-66.3027 23.3445,-54 31.7959,-42.7028 62.1577,-33.7304 90.5147,-27.5685"/>
<polygon fill="#000000" stroke="#000000" points="91.3449,-30.9708 100.4221,-25.507 89.9188,-24.1176 91.3449,-30.9708"/>
<text text-anchor="middle" x="45.82" y="-58.2" font-family="Times,serif" font-size="14.00" fill="#000000">rdf:type</text>
</g>
<!-- Rhttp://www.w3.org/2000/01/rdf&#45;schema#Class&#45;&gt;Rhttp://www.w3.org/2000/01/rdf&#45;schema#Resource -->
<g id="edge3" class="edge">
<title>Rhttp://www.w3.org/2000/01/rdf-schema#Class-&gt;Rhttp://www.w3.org/2000/01/rdf-schema#Resource</title>
<path fill="none" stroke="#000000" d="M116.736,-32.787C107.5157,-38.5011 97.811,-45.6837 90.4623,-54 83.9831,-61.3324 78.7374,-70.5813 74.7103,-79.2817"/>
<polygon fill="#000000" stroke="#000000" points="71.3802,-78.1686 70.6807,-88.7403 77.8201,-80.9123 71.3802,-78.1686"/>
<text text-anchor="middle" x="135.7611" y="-58.2" font-family="Times,serif" font-size="14.00" fill="#000000">rdfs:subClassOf</text>
</g>
<!-- Rhttp://www.w3.org/2000/01/rdf&#45;schema#Class&#45;&gt;Rhttp://www.w3.org/2000/01/rdf&#45;schema#Class -->
<g id="edge2" class="edge">
<title>Rhttp://www.w3.org/2000/01/rdf-schema#Class-&gt;Rhttp://www.w3.org/2000/01/rdf-schema#Class</title>
<path fill="none" stroke="#000000" d="M189.9089,-26.2319C203.0735,-25.9861 213.3171,-23.2422 213.3171,-18 213.3171,-14.1912 207.9096,-11.7012 199.9031,-10.5301"/>
<polygon fill="#000000" stroke="#000000" points="200.1461,-7.0385 189.9089,-9.7681 199.6139,-14.0183 200.1461,-7.0385"/>
<text text-anchor="middle" x="235.4756" y="-13.8" font-family="Times,serif" font-size="14.00" fill="#000000">rdf:type</text>
</g>
<!-- Rhttp://www.w3.org/2000/01/rdf&#45;schema#Datatype -->
<g id="node3" class="node">
<title>Rhttp://www.w3.org/2000/01/rdf-schema#Datatype</title>
<g id="a_node3"><a xlink:href="http://www.w3.org/2000/01/rdf-schema#Datatype" xlink:title="rdfs:Datatype">
<ellipse fill="none" stroke="#0000ff" cx="227.6615" cy="-106.8" rx="63.6793" ry="18"/>
<text text-anchor="middle" x="227.6615" y="-102.6" font-family="Times,serif" font-size="14.00" fill="#000000">rdfs:Datatype</text>
</a>
</g>
</g>
<!-- Rhttp://www.w3.org/2000/01/rdf&#45;schema#Datatype&#45;&gt;Rhttp://www.w3.org/2000/01/rdf&#45;schema#Class -->
<g id="edge4" class="edge">
<title>Rhttp://www.w3.org/2000/01/rdf-schema#Datatype-&gt;Rhttp://www.w3.org/2000/01/rdf-schema#Class</title>
<path fill="none" stroke="#000000" d="M212.1864,-89.0257C203.1114,-78.7009 191.3614,-65.5009 180.6615,-54 177.1157,-50.1887 173.3196,-46.1965 169.5829,-42.3153"/>
<polygon fill="#000000" stroke="#000000" points="172.026,-39.8071 162.5517,-35.0649 167.0009,-44.6803 172.026,-39.8071"/>
<text text-anchor="middle" x="216.82" y="-58.2" font-family="Times,serif" font-size="14.00" fill="#000000">rdf:type</text>
</g>
<!-- Rhttp://www.w3.org/2000/01/rdf&#45;schema#Datatype&#45;&gt;Rhttp://www.w3.org/2000/01/rdf&#45;schema#Class -->
<g id="edge5" class="edge">
<title>Rhttp://www.w3.org/2000/01/rdf-schema#Datatype-&gt;Rhttp://www.w3.org/2000/01/rdf-schema#Class</title>
<path fill="none" stroke="#000000" d="M239.8654,-88.9056C245.6314,-78.0419 249.8439,-64.3267 242.6615,-54 236.7956,-45.5661 216.8062,-37.4818 196.4855,-31.1185"/>
<polygon fill="#000000" stroke="#000000" points="197.4448,-27.7522 186.8608,-28.2301 195.4328,-34.4568 197.4448,-27.7522"/>
<text text-anchor="middle" x="290.7611" y="-58.2" font-family="Times,serif" font-size="14.00" fill="#000000">rdfs:subClassOf</text>
</g>
<!-- Rhttp://www.w3.org/1999/02/22&#45;rdf&#45;syntax&#45;ns#langString -->
<g id="node4" class="node">
<title>Rhttp://www.w3.org/1999/02/22-rdf-syntax-ns#langString</title>
<g id="a_node4"><a xlink:href="http://www.w3.org/1999/02/22-rdf-syntax-ns#langString" xlink:title="rdf:langString">
<ellipse fill="none" stroke="#0000ff" cx="312.6615" cy="-195.6" rx="65.4266" ry="18"/>
<text text-anchor="middle" x="312.6615" y="-191.4" font-family="Times,serif" font-size="14.00" fill="#000000">rdf:langString</text>
</a>
</g>
</g>
<!-- Rhttp://www.w3.org/1999/02/22&#45;rdf&#45;syntax&#45;ns#langString&#45;&gt;Rhttp://www.w3.org/2000/01/rdf&#45;schema#Datatype -->
<g id="edge6" class="edge">
<title>Rhttp://www.w3.org/1999/02/22-rdf-syntax-ns#langString-&gt;Rhttp://www.w3.org/2000/01/rdf-schema#Datatype</title>
<path fill="none" stroke="#000000" d="M295.8683,-178.056C283.1786,-164.799 265.5912,-146.4254 251.454,-131.6562"/>
<polygon fill="#000000" stroke="#000000" points="253.8631,-129.1114 244.4199,-124.3076 248.8064,-133.9517 253.8631,-129.1114"/>
<text text-anchor="middle" x="299.82" y="-147" font-family="Times,serif" font-size="14.00" fill="#000000">rdf:type</text>
</g>
<!-- Rhttp://www.w3.org/2000/01/rdf&#45;schema#Literal -->
<g id="node5" class="node">
<title>Rhttp://www.w3.org/2000/01/rdf-schema#Literal</title>
<g id="a_node5"><a xlink:href="http://www.w3.org/2000/01/rdf-schema#Literal" xlink:title="rdfs:Literal">
<ellipse fill="none" stroke="#0000ff" cx="363.6615" cy="-106.8" rx="54.445" ry="18"/>
<text text-anchor="middle" x="363.6615" y="-102.6" font-family="Times,serif" font-size="14.00" fill="#000000">rdfs:Literal</text>
</a>
</g>
</g>
<!-- Rhttp://www.w3.org/1999/02/22&#45;rdf&#45;syntax&#45;ns#langString&#45;&gt;Rhttp://www.w3.org/2000/01/rdf&#45;schema#Literal -->
<g id="edge7" class="edge">
<title>Rhttp://www.w3.org/1999/02/22-rdf-syntax-ns#langString-&gt;Rhttp://www.w3.org/2000/01/rdf-schema#Literal</title>
<path fill="none" stroke="#000000" d="M322.9821,-177.63C330.2405,-164.9919 340.0786,-147.862 348.2616,-133.614"/>
<polygon fill="#000000" stroke="#000000" points="351.411,-135.158 353.3563,-124.7433 345.3408,-131.6718 351.411,-135.158"/>
<text text-anchor="middle" x="387.7611" y="-147" font-family="Times,serif" font-size="14.00" fill="#000000">rdfs:subClassOf</text>
</g>
</g>
</svg>