<?xml version="1.0" encoding="UTF-8" standalone="no"?><!DOCTYPE svg PUBLIC "-//W3C//DTD SVG 1.1//EN" "http://www.w3.org/Graphics/SVG/1.1/DTD/svg11.dtd"><!-- Generated by graphviz version 2.40.1 (20161225.0304)
 --><!-- Title: %0 Pages: 1 --><svg xmlns="http://www.w3.org/2000/svg" xmlns:xlink="http://www.w3.org/1999/xlink" width="265pt" height="310pt" viewBox="0.00 0.00 265.21 310.40">
<g id="graph0" class="graph" transform="scale(1 1) rotate(0) translate(4 306.4)">
<title>%0</title>
<polygon fill="#ffffff" stroke="transparent" points="-4,4 -4,-306.4 261.2058,-306.4 261.2058,4 -4,4"/>
<!-- Rhttp://www.w3.org/2000/01/rdf&#45;schema#Resource -->
<g id="node1" class="node">
<title>Rhttp://www.w3.org/2000/01/rdf-schema#Resource</title>
<g id="a_node1"><a xlink:href="http://www.w3.org/2000/01/rdf-schema#Resource" xlink:title="rdfs:Resource">
<ellipse fill="none" stroke="#0000ff" cx="84.9738" cy="-106.8" rx="64.8234" ry="18"/>
<text text-anchor="middle" x="84.9738" y="-102.6" font-family="Times,serif" font-size="14.00" fill="#000000">rdfs:Resource</text>
</a>
</g>
</g>
<!-- Rhttp://www.w3.org/2000/01/rdf&#45;schema#Class -->
<g id="node2" class="node">
<title>Rhttp://www.w3.org/2000/01/rdf-schema#Class</title>
<g id="a_node2"><a xlink:href="http://www.w3.org/2000/01/rdf-schema#Class" xlink:title="rdfs:Class">
<ellipse fill="none" stroke="#0000ff" cx="53.9738" cy="-18" rx="49.8117" ry="18"/>
<text text-anchor="middle" x="53.9738" y="-13.8" font-family="Times,serif" font-size="14.00" fill="#000000">rdfs:Class</text>
</a>
</g>
</g>
<!-- Rhttp://www.w3.org/2000/01/rdf&#45;schema#Resource&#45;&gt;Rhttp://www.w3.org/2000/01/rdf&#45;schema#Class -->
<g id="edge1" class="edge">
<title>Rhttp://www.w3.org/2000/01/rdf-schema#Resource-&gt;Rhttp://www.w3.org/2000/01/rdf-schema#Class</title>
<path fill="none" stroke="#000000" d="M45.1973,-92.5067C35.8578,-87.1803 27.0618,-80.0905 21.6568,-70.8 16.195,-61.4116 20.0821,-51.2071 26.7878,-42.2939"/>
<polygon fill="#000000" stroke="#000000" points="29.6206,-44.3706 33.5513,-34.5319 24.343,-39.772 29.6206,-44.3706"/>
<text text-anchor="middle" x="44.1323" y="-58.2" font-family="Times,serif" font-size="14.00" fill="#000000">rdf:type</text>
</g>
<!-- Rhttp://www.w3.org/2000/01/rdf&#45;schema#Class&#45;&gt;Rhttp://www.w3.org/2000/01/rdf&#45;schema#Resource -->
<g id="edge3" class="edge">
<title>Rhttp://www.w3.org/2000/01/rdf-schema#Class-&gt;Rhttp://www.w3.org/2000/01/rdf-schema#Resource</title>
<path fill="none" stroke="#000000" d="M60.2378,-35.9433C64.5636,-48.3344 70.4,-65.0529 75.3172,-79.1384"/>
<polygon fill="#000000" stroke="#000000" points="72.1001,-80.5424 78.7005,-88.83 78.709,-78.2352 72.1001,-80.5424"/>
<text text-anchor="middle" x="117.0734" y="-58.2" font-family="Times,serif" font-size="14.00" fill="#000000">rdfs:subClassOf</text>
</g>
<!-- Rhttp://www.w3.org/2000/01/rdf&#45;schema#Class&#45;&gt;Rhttp://www.w3.org/2000/01/rdf&#45;schema#Class -->
<g id="edge2" class="edge">
<title>Rhttp://www.w3.org/2000/01/rdf-schema#Class-&gt;Rhttp://www.w3.org/2000/01/rdf-schema#Class</title>
<path fill="none" stroke="#000000" d="M98.2212,-26.2319C111.3859,-25.9861 121.6294,-23.2422 121.6294,-18 121.6294,-14.1912 116.2219,-11.7012 108.2154,-10.5301"/>
<polygon fill="#000000" stroke="#000000" points="108.4584,-7.0385 98.2212,-9.7681 107.9262,-14.0183 108.4584,-7.0385"/>
<text text-anchor="middle" x="143.7879" y="-13.8" font-family="Times,serif" font-size="14.00" fill="#000000">rdf:type</text>
</g>
<!-- Rhttp://www.w3.org/1999/02/22&#45;rdf&#45;syntax&#45;ns#Property -->
<g id="node3" class="node">
<title>Rhttp://www.w3.org/1999/02/22-rdf-syntax-ns#Property</title>
<g id="a_node3"><a xlink:href="http://www.w3.org/1999/02/22-rdf-syntax-ns#Property" xlink:title="rdf:Property">
<ellipse fill="none" stroke="#0000ff" cx="198.9738" cy="-195.6" rx="58.4648" ry="18"/>
<text text-anchor="middle" x="198.9738" y="-191.4" font-family="Times,serif" font-size="14.00" fill="#000000">rdf:Property</text>
</a>
</g>
</g>
<!-- Rhttp://www.w3.org/1999/02/22&#45;rdf&#45;syntax&#45;ns#Property&#45;&gt;Rhttp://www.w3.org/2000/01/rdf&#45;schema#Resource -->
<g id="edge5" class="edge">
<title>Rhttp://www.w3.org/1999/02/22-rdf-syntax-ns#Property-&gt;Rhttp://www.w3.org/2000/01/rdf-schema#Resource</title>
<path fill="none" stroke="#000000" d="M152.3655,-184.6681C128.0627,-178.0242 101.7629,-169.0242 93.7746,-159.6 88.0502,-152.8466 85.3675,-143.8076 84.2554,-135.1194"/>
<polygon fill="#000000" stroke="#000000" points="87.7302,-134.6206 83.579,-124.8729 80.7454,-135.0817 87.7302,-134.6206"/>
<text text-anchor="middle" x="138.0734" y="-147" font-family="Times,serif" font-size="14.00" fill="#000000">rdfs:subClassOf</text>
</g>
<!-- Rhttp://www.w3.org/1999/02/22&#45;rdf&#45;syntax&#45;ns#Property&#45;&gt;Rhttp://www.w3.org/2000/01/rdf&#45;schema#Class -->
<g id="edge4" class="edge">
<title>Rhttp://www.w3.org/1999/02/22-rdf-syntax-ns#Property-&gt;Rhttp://www.w3.org/2000/01/rdf-schema#Class</title>
<path fill="none" stroke="#000000" d="M200.0562,-177.3741C200.7902,-147.6345 197.7835,-88.5323 165.9738,-54 157.5142,-44.8162 131.5864,-36.1929 106.8064,-29.6896"/>
<polygon fill="#000000" stroke="#000000" points="107.5958,-26.2791 97.0424,-27.2155 105.8764,-33.0646 107.5958,-26.2791"/>
<text text-anchor="middle" x="218.1323" y="-102.6" font-family="Times,serif" font-size="14.00" fill="#000000">rdf:type</text>
</g>
<!-- Rhttp://www.w3.org/1999/02/22&#45;rdf&#45;syntax&#45;ns#type -->
<g id="node4" class="node">
<title>Rhttp://www.w3.org/1999/02/22-rdf-syntax-ns#type</title>
<g id="a_node4"><a xlink:href="http://www.w3.org/1999/02/22-rdf-syntax-ns#type" xlink:title="rdf:type">
<ellipse fill="none" stroke="#0000ff" cx="54.9738" cy="-284.4" rx="41.7114" ry="18"/>
<text text-anchor="middle" x="54.9738" y="-280.2" font-family="Times,serif" font-size="14.00" fill="#000000">rdf:type</text>
</a>
</g>
</g>
<!-- Rhttp://www.w3.org/1999/02/22&#45;rdf&#45;syntax&#45;ns#type&#45;&gt;Rhttp://www.w3.org/2000/01/rdf&#45;schema#Resource -->
<g id="edge8" class="edge">
<title>Rhttp://www.w3.org/1999/02/22-rdf-syntax-ns#type-&gt;Rhttp://www.w3.org/2000/01/rdf-schema#Resource</title>
<path fill="none" stroke="#000000" d="M55.4831,-266.1108C56.3296,-244.7234 58.5525,-208.3323 64.3216,-177.6 67.0245,-163.202 71.4366,-147.5318 75.4902,-134.6024"/>
<polygon fill="#000000" stroke="#000000" points="78.8817,-135.4894 78.6247,-124.8976 72.2205,-133.3378 78.8817,-135.4894"/>
<text text-anchor="middle" x="97.7999" y="-191.4" font-family="Times,serif" font-size="14.00" fill="#000000">rdfs:domain</text>
</g>
<!-- Rhttp://www.w3.org/1999/02/22&#45;rdf&#45;syntax&#45;ns#type&#45;&gt;Rhttp://www.w3.org/2000/01/rdf&#45;schema#Class -->
<g id="edge7" class="edge">
<title>Rhttp://www.w3.org/1999/02/22-rdf-syntax-ns#type-&gt;Rhttp://www.w3.org/2000/01/rdf-schema#Class</title>
<path fill="none" stroke="#000000" d="M45.8739,-266.814C34.207,-243.1817 14.6035,-199.5212 7.2276,-159.6 -1.3287,-113.2898 -5.6712,-95.8251 15.9738,-54 18.2554,-49.5913 21.2935,-45.4249 24.6613,-41.5982"/>
<polygon fill="#000000" stroke="#000000" points="27.3748,-43.8311 31.9007,-34.2515 22.3888,-38.9178 27.3748,-43.8311"/>
<text text-anchor="middle" x="36.3469" y="-147" font-family="Times,serif" font-size="14.00" fill="#000000">rdfs:range</text>
</g>
<!-- Rhttp://www.w3.org/1999/02/22&#45;rdf&#45;syntax&#45;ns#type&#45;&gt;Rhttp://www.w3.org/1999/02/22&#45;rdf&#45;syntax&#45;ns#Property -->
<g id="edge6" class="edge">
<title>Rhttp://www.w3.org/1999/02/22-rdf-syntax-ns#type-&gt;Rhttp://www.w3.org/1999/02/22-rdf-syntax-ns#Property</title>
<path fill="none" stroke="#000000" d="M79.0762,-269.5369C102.3826,-255.1646 137.9434,-233.2354 164.2908,-216.9879"/>
<polygon fill="#000000" stroke="#000000" points="166.1672,-219.9428 172.8418,-211.7148 162.4929,-213.9846 166.1672,-219.9428"/>
<text text-anchor="middle" x="161.1323" y="-235.8" font-family="Times,serif" font-size="14.00" fill="#000000">rdf:type</text>
</g>
</g>
</svg>