<?xml version="1.0" encoding="UTF-8" standalone="no"?><!DOCTYPE svg PUBLIC "-//W3C//DTD SVG 1.1//EN" "http://www.w3.org/Graphics/SVG/1.1/DTD/svg11.dtd"><!-- Generated by graphviz version 2.40.1 (20161225.0304)
 --><!-- Title: %0 Pages: 1 --><svg xmlns="http://www.w3.org/2000/svg" xmlns:xlink="http://www.w3.org/1999/xlink" width="309pt" height="63pt" viewBox="0.00 0.00 309.39 63.00">
<g id="graph0" class="graph" transform="scale(1 1) rotate(0) translate(4 59)">
<title>%0</title>
<polygon fill="#ffffff" stroke="transparent" points="-4,4 -4,-59 305.3921,-59 305.3921,4 -4,4"/>
<!-- Rhttp://www.w3.org/2000/01/rdf&#45;schema#Resource -->
<g id="node1" class="node">
<title>Rhttp://www.w3.org/2000/01/rdf-schema#Resource</title>
<g id="a_node1"><a xlink:href="http://www.w3.org/2000/01/rdf-schema#Resource" xlink:title="rdfs:Resource">
<ellipse fill="none" stroke="#0000ff" cx="64.8491" cy="-36.7502" rx="64.8234" ry="18"/>
<text text-anchor="middle" x="64.8491" y="-32.5502" font-family="Times,serif" font-size="14.00" fill="#000000">rdfs:Resource</text>
</a>
</g>
</g>
<!-- Rhttp://www.w3.org/2000/01/rdf&#45;schema#Class -->
<g id="node2" class="node">
<title>Rhttp://www.w3.org/2000/01/rdf-schema#Class</title>
<g id="a_node2"><a xlink:href="http://www.w3.org/2000/01/rdf-schema#Class" xlink:title="rdfs:Class">
<ellipse fill="none" stroke="#0000ff" cx="189.4195" cy="-18.1387" rx="49.8117" ry="18"/>
<text text-anchor="middle" x="189.4195" y="-13.9387" font-family="Times,serif" font-size="14.00" fill="#000000">rdfs:Class</text>
</a>
</g>
</g>
<!-- Rhttp://www.w3.org/2000/01/rdf&#45;schema#Resource&#45;&gt;Rhttp://www.w3.org/2000/01/rdf&#45;schema#Class -->
<g id="edge1" class="edge">
<title>Rhttp://www.w3.org/2000/01/rdf-schema#Resource-&gt;Rhttp://www.w3.org/2000/01/rdf-schema#Class</title>
<path fill="none" stroke="#000000" d="M128.8615,-34.0109C133.3415,-33.3364 137.8096,-32.6167 142.1729,-31.8655"/>
<polygon fill="#000000" stroke="#000000" points="142.9052,-35.2898 152.1205,-30.062 141.6565,-28.4021 142.9052,-35.2898"/>
<text text-anchor="middle" x="157.6757" y="-37.1382" font-family="Times,serif" font-size="14.00" fill="#000000">rdf:type</text>
</g>
<!-- Rhttp://www.w3.org/2000/01/rdf&#45;schema#Class&#45;&gt;Rhttp://www.w3.org/2000/01/rdf&#45;schema#Resource -->
<g id="edge3" class="edge">
<title>Rhttp://www.w3.org/2000/01/rdf-schema#Class-&gt;Rhttp://www.w3.org/2000/01/rdf-schema#Resource</title>
<path fill="none" stroke="#000000" d="M139.5669,-18.9046C132.7676,-19.7743 125.7624,-20.7871 118.8933,-21.892"/>
<polygon fill="#000000" stroke="#000000" points="118.2427,-18.4523 108.9664,-23.5708 119.41,-25.3543 118.2427,-18.4523"/>
<text text-anchor="middle" x="84.1305" y="-7.7983" font-family="Times,serif" font-size="14.00" fill="#000000">rdfs:subClassOf</text>
</g>
<!-- Rhttp://www.w3.org/2000/01/rdf&#45;schema#Class&#45;&gt;Rhttp://www.w3.org/2000/01/rdf&#45;schema#Class -->
<g id="edge2" class="edge">
<title>Rhttp://www.w3.org/2000/01/rdf-schema#Class-&gt;Rhttp://www.w3.org/2000/01/rdf-schema#Class</title>
<path fill="none" stroke="#000000" d="M235.5871,-24.8294C247.8143,-24.4471 257.0751,-22.2168 257.0751,-18.1387 257.0751,-15.335 252.6979,-13.4047 245.9889,-12.3478"/>
<polygon fill="#000000" stroke="#000000" points="245.8516,-8.823 235.5871,-11.448 245.2482,-15.7969 245.8516,-8.823"/>
<text text-anchor="middle" x="279.2336" y="-13.9387" font-family="Times,serif" font-size="14.00" fill="#000000">rdf:type</text>
</g>
</g>
</svg>