<?xml version="1.0" encoding="UTF-8" standalone="no"?><!DOCTYPE svg PUBLIC "-//W3C//DTD SVG 1.1//EN" "http://www.w3.org/Graphics/SVG/1.1/DTD/svg11.dtd"><!-- Generated by graphviz version 2.40.1 (20161225.0304)
 --><!-- Title: %0 Pages: 1 --><svg xmlns="http://www.w3.org/2000/svg" xmlns:xlink="http://www.w3.org/1999/xlink" width="775pt" height="400pt" viewBox="0.00 0.00 774.72 400.20">
<g id="graph0" class="graph" transform="scale(1 1) rotate(0) translate(4 396.2)">
<title>%0</title>
<polygon fill="#ffffff" stroke="transparent" points="-4,4 -4,-396.2 770.7213,-396.2 770.7213,4 -4,4"/>
<!-- B_:genid1 -->
<g id="node1" class="node">
<title>B_:genid1</title>
<ellipse fill="none" stroke="#00ff00" cx="275.174" cy="-195.6" rx="18" ry="18"/>
</g>
<!-- B_:genid2 -->
<g id="node2" class="node">
<title>B_:genid2</title>
<ellipse fill="none" stroke="#00ff00" cx="159.174" cy="-106.8" rx="18" ry="18"/>
</g>
<!-- B_:genid1&#45;&gt;B_:genid2 -->
<g id="edge1" class="edge">
<title>B_:genid1-&gt;B_:genid2</title>
<path fill="none" stroke="#000000" d="M260.4826,-184.3534C240.6099,-169.1406 204.9777,-141.8635 181.7079,-124.0501"/>
<polygon fill="#000000" stroke="#000000" points="183.8142,-121.2547 173.7462,-117.9553 179.5592,-126.813 183.8142,-121.2547"/>
<text text-anchor="middle" x="248.3851" y="-147" font-family="Times,serif" font-size="14.00" fill="#000000">rdf:rest</text>
</g>
<!-- Rfile:///Users/ojitha/workspace/RDFTutorials/B1 -->
<g id="node3" class="node">
<title>Rfile:///Users/ojitha/workspace/RDFTutorials/B1</title>
<g id="a_node3"><a xlink:href="file:///Users/ojitha/workspace/RDFTutorials/B1" xlink:title="file:///Users/ojitha/workspace/RDFTutorials/B1">
<ellipse fill="none" stroke="#0000ff" cx="391.174" cy="-106.8" rx="195.6074" ry="18"/>
<text text-anchor="middle" x="391.174" y="-102.6" font-family="Times,serif" font-size="14.00" fill="#000000">file:///Users/ojitha/workspace/RDFTutorials/B1</text>
</a>
</g>
</g>
<!-- B_:genid1&#45;&gt;Rfile:///Users/ojitha/workspace/RDFTutorials/B1 -->
<g id="edge2" class="edge">
<title>B_:genid1-&gt;Rfile:///Users/ojitha/workspace/RDFTutorials/B1</title>
<path fill="none" stroke="#000000" d="M289.8655,-184.3534C307.3491,-170.9695 337.0308,-148.2476 359.7606,-130.8475"/>
<polygon fill="#000000" stroke="#000000" points="361.9718,-133.5627 367.7848,-124.7049 357.7168,-128.0043 361.9718,-133.5627"/>
<text text-anchor="middle" x="365.5534" y="-147" font-family="Times,serif" font-size="14.00" fill="#000000">rdf:first</text>
</g>
<!-- Rhttp://www.w3.org/1999/02/22&#45;rdf&#45;syntax&#45;ns#nil -->
<g id="node6" class="node">
<title>Rhttp://www.w3.org/1999/02/22-rdf-syntax-ns#nil</title>
<g id="a_node6"><a xlink:href="http://www.w3.org/1999/02/22-rdf-syntax-ns#nil" xlink:title="rdf:nil">
<ellipse fill="none" stroke="#0000ff" cx="35.174" cy="-18" rx="35.3489" ry="18"/>
<text text-anchor="middle" x="35.174" y="-13.8" font-family="Times,serif" font-size="14.00" fill="#000000">rdf:nil</text>
</a>
</g>
</g>
<!-- B_:genid2&#45;&gt;Rhttp://www.w3.org/1999/02/22&#45;rdf&#45;syntax&#45;ns#nil -->
<g id="edge5" class="edge">
<title>B_:genid2-&gt;Rhttp://www.w3.org/1999/02/22-rdf-syntax-ns#nil</title>
<path fill="none" stroke="#000000" d="M144.4627,-96.2648C124.8364,-82.2098 89.6451,-57.0083 64.4967,-38.9988"/>
<polygon fill="#000000" stroke="#000000" points="66.2302,-35.9353 56.0622,-32.9586 62.1546,-41.6265 66.2302,-35.9353"/>
<text text-anchor="middle" x="129.3851" y="-58.2" font-family="Times,serif" font-size="14.00" fill="#000000">rdf:rest</text>
</g>
<!-- Rfile:///Users/ojitha/workspace/RDFTutorials/C1 -->
<g id="node7" class="node">
<title>Rfile:///Users/ojitha/workspace/RDFTutorials/C1</title>
<g id="a_node7"><a xlink:href="file:///Users/ojitha/workspace/RDFTutorials/C1" xlink:title="file:///Users/ojitha/workspace/RDFTutorials/C1">
<ellipse fill="none" stroke="#0000ff" cx="284.174" cy="-18" rx="195.6074" ry="18"/>
<text text-anchor="middle" x="284.174" y="-13.8" font-family="Times,serif" font-size="14.00" fill="#000000">file:///Users/ojitha/workspace/RDFTutorials/C1</text>
</a>
</g>
</g>
<!-- B_:genid2&#45;&gt;Rfile:///Users/ojitha/workspace/RDFTutorials/C1 -->
<g id="edge6" class="edge">
<title>B_:genid2-&gt;Rfile:///Users/ojitha/workspace/RDFTutorials/C1</title>
<path fill="none" stroke="#000000" d="M174.004,-96.2648C192.7473,-82.9495 225.573,-59.6302 250.5318,-41.8995"/>
<polygon fill="#000000" stroke="#000000" points="252.8706,-44.5313 258.9959,-35.8865 248.8166,-38.8247 252.8706,-44.5313"/>
<text text-anchor="middle" x="254.5534" y="-58.2" font-family="Times,serif" font-size="14.00" fill="#000000">rdf:first</text>
</g>
<!-- B_:genid3 -->
<g id="node4" class="node">
<title>B_:genid3</title>
<ellipse fill="none" stroke="#00ff00" cx="391.174" cy="-284.9" rx="18" ry="18"/>
</g>
<!-- B_:genid3&#45;&gt;B_:genid1 -->
<g id="edge3" class="edge">
<title>B_:genid3-&gt;B_:genid1</title>
<path fill="none" stroke="#000000" d="M376.4826,-273.5901C356.6099,-258.2916 320.9777,-230.861 297.7079,-212.9472"/>
<polygon fill="#000000" stroke="#000000" points="299.8052,-210.1448 289.7462,-206.8181 295.5352,-215.6916 299.8052,-210.1448"/>
<text text-anchor="middle" x="364.3851" y="-235.8" font-family="Times,serif" font-size="14.00" fill="#000000">rdf:rest</text>
</g>
<!-- Rfile:///Users/ojitha/workspace/RDFTutorials/A1 -->
<g id="node5" class="node">
<title>Rfile:///Users/ojitha/workspace/RDFTutorials/A1</title>
<g id="a_node5"><a xlink:href="file:///Users/ojitha/workspace/RDFTutorials/A1" xlink:title="file:///Users/ojitha/workspace/RDFTutorials/A1">
<ellipse fill="none" stroke="#0000ff" cx="507.174" cy="-195.6" rx="196.1697" ry="18"/>
<text text-anchor="middle" x="507.174" y="-191.4" font-family="Times,serif" font-size="14.00" fill="#000000">file:///Users/ojitha/workspace/RDFTutorials/A1</text>
</a>
</g>
</g>
<!-- B_:genid3&#45;&gt;Rfile:///Users/ojitha/workspace/RDFTutorials/A1 -->
<g id="edge4" class="edge">
<title>B_:genid3-&gt;Rfile:///Users/ojitha/workspace/RDFTutorials/A1</title>
<path fill="none" stroke="#000000" d="M405.8655,-273.5901C423.3491,-260.1308 453.0308,-237.281 475.7606,-219.7829"/>
<polygon fill="#000000" stroke="#000000" points="477.9958,-222.4792 483.7848,-213.6057 473.7258,-216.9324 477.9958,-222.4792"/>
<text text-anchor="middle" x="481.5534" y="-235.8" font-family="Times,serif" font-size="14.00" fill="#000000">rdf:first</text>
</g>
<!-- Rhttp://ojitha.github.io/blog#oj -->
<g id="node8" class="node">
<title>Rhttp://ojitha.github.io/blog#oj</title>
<g id="a_node8"><a xlink:href="http://ojitha.github.io/blog#oj" xlink:title="http://ojitha.github.io/blog#oj">
<ellipse fill="none" stroke="#0000ff" cx="532.174" cy="-374.2" rx="125.1435" ry="18"/>
<text text-anchor="middle" x="532.174" y="-370" font-family="Times,serif" font-size="14.00" fill="#000000">http://ojitha.github.io/blog#oj</text>
</a>
</g>
</g>
<!-- Rhttp://ojitha.github.io/blog#oj&#45;&gt;B_:genid3 -->
<g id="edge7" class="edge">
<title>Rhttp://ojitha.github.io/blog#oj-&gt;B_:genid3</title>
<path fill="none" stroke="#000000" d="M459.4618,-359.4927C436.6797,-353.583 415.346,-346.2559 407.1964,-338.2 400.4062,-331.4878 396.4708,-322.0163 394.1979,-312.9157"/>
<polygon fill="#000000" stroke="#000000" points="397.6089,-312.1192 392.2747,-302.9651 390.7361,-313.4476 397.6089,-312.1192"/>
<text text-anchor="middle" x="439.6628" y="-325.6" font-family="Times,serif" font-size="14.00" fill="#000000">foaf:knows</text>
</g>
<!-- LOjitha -->
<g id="node9" class="node">
<title>LOjitha</title>
<polygon fill="none" stroke="#000000" points="450.174,-266.9 450.174,-302.9 504.174,-302.9 504.174,-266.9 450.174,-266.9"/>
<text text-anchor="middle" x="477.1705" y="-280.7" font-family="Times,serif" font-size="14.00" fill="#000000">Ojitha</text>
</g>
<!-- Rhttp://ojitha.github.io/blog#oj&#45;&gt;LOjitha -->
<g id="edge8" class="edge">
<title>Rhttp://ojitha.github.io/blog#oj-&gt;LOjitha</title>
<path fill="none" stroke="#000000" d="M495.8376,-356.9499C488.8472,-351.9117 482.4317,-345.6943 478.3226,-338.2 474.2552,-330.7817 472.9459,-321.8657 472.9438,-313.4674"/>
<polygon fill="#000000" stroke="#000000" points="476.4509,-313.4424 473.5308,-303.2579 469.4624,-313.0405 476.4509,-313.4424"/>
<text text-anchor="middle" x="523.0997" y="-325.6" font-family="Times,serif" font-size="14.00" fill="#000000">foaf:givenname</text>
</g>
<!-- LKumanayaka -->
<g id="node10" class="node">
<title>LKumanayaka</title>
<polygon fill="none" stroke="#000000" points="543.2462,-266.9 543.2462,-302.9 633.1018,-302.9 633.1018,-266.9 543.2462,-266.9"/>
<text text-anchor="middle" x="588.174" y="-280.7" font-family="Times,serif" font-size="14.00" fill="#000000">Kumanayaka</text>
</g>
<!-- Rhttp://ojitha.github.io/blog#oj&#45;&gt;LKumanayaka -->
<g id="edge9" class="edge">
<title>Rhttp://ojitha.github.io/blog#oj-&gt;LKumanayaka</title>
<path fill="none" stroke="#000000" d="M551.5749,-356.2441C556.7637,-350.7911 562.0653,-344.5522 566.174,-338.2 571.2542,-330.346 575.5568,-321.1248 578.9726,-312.5807"/>
<polygon fill="#000000" stroke="#000000" points="582.3371,-313.5764 582.5685,-302.9841 575.7821,-311.1201 582.3371,-313.5764"/>
<text text-anchor="middle" x="625.3206" y="-325.6" font-family="Times,serif" font-size="14.00" fill="#000000">foaf:family_name</text>
</g>
<!-- Rhttp://xmlns.com/foaf/0.1/Person -->
<g id="node11" class="node">
<title>Rhttp://xmlns.com/foaf/0.1/Person</title>
<g id="a_node11"><a xlink:href="http://xmlns.com/foaf/0.1/Person" xlink:title="foaf:Person">
<ellipse fill="none" stroke="#0000ff" cx="711.174" cy="-284.9" rx="55.5946" ry="18"/>
<text text-anchor="middle" x="711.174" y="-280.7" font-family="Times,serif" font-size="14.00" fill="#000000">foaf:Person</text>
</a>
</g>
</g>
<!-- Rhttp://ojitha.github.io/blog#oj&#45;&gt;Rhttp://xmlns.com/foaf/0.1/Person -->
<g id="edge10" class="edge">
<title>Rhttp://ojitha.github.io/blog#oj-&gt;Rhttp://xmlns.com/foaf/0.1/Person</title>
<path fill="none" stroke="#000000" d="M612.0996,-360.2857C640.3211,-354.1973 667.8582,-346.5399 679.174,-338.2 688.1665,-331.5725 695.1183,-321.5917 700.2096,-312.0525"/>
<polygon fill="#000000" stroke="#000000" points="703.4812,-313.3268 704.6875,-302.8009 697.1804,-310.2772 703.4812,-313.3268"/>
<text text-anchor="middle" x="715.3325" y="-325.6" font-family="Times,serif" font-size="14.00" fill="#000000">rdf:type</text>
</g>
</g>
</svg>