<?xml version="1.0" encoding="UTF-8" standalone="no"?><!DOCTYPE svg PUBLIC "-//W3C//DTD SVG 1.1//EN" "http://www.w3.org/Graphics/SVG/1.1/DTD/svg11.dtd"><!-- Generated by graphviz version 2.40.1 (20161225.0304)
 --><!-- Title: %0 Pages: 1 --><svg xmlns="http://www.w3.org/2000/svg" xmlns:xlink="http://www.w3.org/1999/xlink" width="216pt" height="188pt" viewBox="0.00 0.00 216.46 188.00">
<g id="graph0" class="graph" transform="scale(1 1) rotate(0) translate(4 184)">
<title>%0</title>
<polygon fill="#ffffff" stroke="transparent" points="-4,4 -4,-184 212.4555,-184 212.4555,4 -4,4"/>
<!-- Rhttp://www.w3.org/2000/01/rdf&#45;schema#Resource -->
<g id="node1" class="node">
<title>Rhttp://www.w3.org/2000/01/rdf-schema#Resource</title>
<g id="a_node1"><a xlink:href="http://www.w3.org/2000/01/rdf-schema#Resource" xlink:title="rdfs:Resource">
<ellipse fill="none" stroke="#0000ff" cx="96.4829" cy="-162" rx="64.8234" ry="18"/>
<text text-anchor="middle" x="96.4829" y="-157.8" font-family="Times,serif" font-size="14.00" fill="#000000">rdfs:Resource</text>
</a>
</g>
</g>
<!-- Rhttp://www.w3.org/2000/01/rdf&#45;schema#Class -->
<g id="node2" class="node">
<title>Rhttp://www.w3.org/2000/01/rdf-schema#Class</title>
<g id="a_node2"><a xlink:href="http://www.w3.org/2000/01/rdf-schema#Class" xlink:title="rdfs:Class">
<ellipse fill="none" stroke="#0000ff" cx="96.4829" cy="-90" rx="49.8117" ry="18"/>
<text text-anchor="middle" x="96.4829" y="-85.8" font-family="Times,serif" font-size="14.00" fill="#000000">rdfs:Class</text>
</a>
</g>
</g>
<!-- Rhttp://www.w3.org/2000/01/rdf&#45;schema#Resource&#45;&gt;Rhttp://www.w3.org/2000/01/rdf&#45;schema#Class -->
<g id="edge1" class="edge">
<title>Rhttp://www.w3.org/2000/01/rdf-schema#Resource-&gt;Rhttp://www.w3.org/2000/01/rdf-schema#Class</title>
<path fill="none" stroke="#000000" d="M102.4353,-143.8314C103.1973,-136.0125 103.4133,-126.6923 103.0834,-118.0221"/>
<polygon fill="#000000" stroke="#000000" points="106.5671,-117.6587 102.4102,-107.9134 99.5825,-118.1239 106.5671,-117.6587"/>
<text text-anchor="middle" x="124.9179" y="-118.3267" font-family="Times,serif" font-size="14.00" fill="#000000">rdf:type</text>
</g>
<!-- Rhttp://www.w3.org/2000/01/rdf&#45;schema#Class&#45;&gt;Rhttp://www.w3.org/2000/01/rdf&#45;schema#Resource -->
<g id="edge3" class="edge">
<title>Rhttp://www.w3.org/2000/01/rdf-schema#Class-&gt;Rhttp://www.w3.org/2000/01/rdf-schema#Resource</title>
<path fill="none" stroke="#000000" d="M90.5305,-108.1686C89.7801,-115.869 89.5592,-125.0257 89.8679,-133.5834"/>
<polygon fill="#000000" stroke="#000000" points="86.3764,-133.8303 90.5069,-143.5867 93.3622,-133.3839 86.3764,-133.8303"/>
<text text-anchor="middle" x="45.0996" y="-125.076" font-family="Times,serif" font-size="14.00" fill="#000000">rdfs:subClassOf</text>
</g>
<!-- Rhttp://www.w3.org/2000/01/rdf&#45;schema#Class&#45;&gt;Rhttp://www.w3.org/2000/01/rdf&#45;schema#Class -->
<g id="edge2" class="edge">
<title>Rhttp://www.w3.org/2000/01/rdf-schema#Class-&gt;Rhttp://www.w3.org/2000/01/rdf-schema#Class</title>
<path fill="none" stroke="#000000" d="M142.6506,-96.6907C154.8777,-96.3083 164.1385,-94.0781 164.1385,-90 164.1385,-87.1963 159.7614,-85.266 153.0524,-84.2091"/>
<polygon fill="#000000" stroke="#000000" points="152.9151,-80.6843 142.6506,-83.3093 152.3117,-87.6582 152.9151,-80.6843"/>
<text text-anchor="middle" x="186.297" y="-85.8" font-family="Times,serif" font-size="14.00" fill="#000000">rdf:type</text>
</g>
<!-- Rhttp://www.w3.org/2000/01/rdf&#45;schema#Datatype -->
<g id="node3" class="node">
<title>Rhttp://www.w3.org/2000/01/rdf-schema#Datatype</title>
<g id="a_node3"><a xlink:href="http://www.w3.org/2000/01/rdf-schema#Datatype" xlink:title="rdfs:Datatype">
<ellipse fill="none" stroke="#0000ff" cx="96.4829" cy="-18" rx="63.6793" ry="18"/>
<text text-anchor="middle" x="96.4829" y="-13.8" font-family="Times,serif" font-size="14.00" fill="#000000">rdfs:Datatype</text>
</a>
</g>
</g>
<!-- Rhttp://www.w3.org/2000/01/rdf&#45;schema#Datatype&#45;&gt;Rhttp://www.w3.org/2000/01/rdf&#45;schema#Class -->
<g id="edge4" class="edge">
<title>Rhttp://www.w3.org/2000/01/rdf-schema#Datatype-&gt;Rhttp://www.w3.org/2000/01/rdf-schema#Class</title>
<path fill="none" stroke="#000000" d="M90.5305,-36.1686C89.7686,-43.9875 89.5526,-53.3077 89.8825,-61.9779"/>
<polygon fill="#000000" stroke="#000000" points="86.3988,-62.3413 90.5557,-72.0866 93.3834,-61.8761 86.3988,-62.3413"/>
<text text-anchor="middle" x="68.048" y="-53.2733" font-family="Times,serif" font-size="14.00" fill="#000000">rdf:type</text>
</g>
<!-- Rhttp://www.w3.org/2000/01/rdf&#45;schema#Datatype&#45;&gt;Rhttp://www.w3.org/2000/01/rdf&#45;schema#Class -->
<g id="edge5" class="edge">
<title>Rhttp://www.w3.org/2000/01/rdf-schema#Datatype-&gt;Rhttp://www.w3.org/2000/01/rdf-schema#Class</title>
<path fill="none" stroke="#000000" d="M102.4353,-36.1686C103.1973,-43.9875 103.4133,-53.3077 103.0834,-61.9779"/>
<polygon fill="#000000" stroke="#000000" points="99.5825,-61.8761 102.4102,-72.0866 106.5671,-62.3413 99.5825,-61.8761"/>
<text text-anchor="middle" x="147.859" y="-53.2733" font-family="Times,serif" font-size="14.00" fill="#000000">rdfs:subClassOf</text>
</g>
</g>
</svg>