<?xml version="1.0" encoding="UTF-8" standalone="no"?><!DOCTYPE svg PUBLIC "-//W3C//DTD SVG 1.1//EN" "http://www.w3.org/Graphics/SVG/1.1/DTD/svg11.dtd"><!-- Generated by graphviz version 2.40.1 (20161225.0304)
 --><!-- Title: %0 Pages: 1 --><svg xmlns="http://www.w3.org/2000/svg" xmlns:xlink="http://www.w3.org/1999/xlink" width="384pt" height="310pt" viewBox="0.00 0.00 384.13 310.40">
<g id="graph0" class="graph" transform="scale(1 1) rotate(0) translate(4 306.4)">
<title>%0</title>
<polygon fill="#ffffff" stroke="transparent" points="-4,4 -4,-306.4 380.134,-306.4 380.134,4 -4,4"/>
<!-- Rhttp://www.w3.org/2000/01/rdf&#45;schema#Resource -->
<g id="node1" class="node">
<title>Rhttp://www.w3.org/2000/01/rdf-schema#Resource</title>
<g id="a_node1"><a xlink:href="http://www.w3.org/2000/01/rdf-schema#Resource" xlink:title="rdfs:Resource">
<ellipse fill="none" stroke="#0000ff" cx="64.6615" cy="-106.8" rx="64.8234" ry="18"/>
<text text-anchor="middle" x="64.6615" y="-102.6" font-family="Times,serif" font-size="14.00" fill="#000000">rdfs:Resource</text>
</a>
</g>
</g>
<!-- Rhttp://www.w3.org/2000/01/rdf&#45;schema#Class -->
<g id="node2" class="node">
<title>Rhttp://www.w3.org/2000/01/rdf-schema#Class</title>
<g id="a_node2"><a xlink:href="http://www.w3.org/2000/01/rdf-schema#Class" xlink:title="rdfs:Class">
<ellipse fill="none" stroke="#0000ff" cx="85.6615" cy="-18" rx="49.8117" ry="18"/>
<text text-anchor="middle" x="85.6615" y="-13.8" font-family="Times,serif" font-size="14.00" fill="#000000">rdfs:Class</text>
</a>
</g>
</g>
<!-- Rhttp://www.w3.org/2000/01/rdf&#45;schema#Resource&#45;&gt;Rhttp://www.w3.org/2000/01/rdf&#45;schema#Class -->
<g id="edge1" class="edge">
<title>Rhttp://www.w3.org/2000/01/rdf-schema#Resource-&gt;Rhttp://www.w3.org/2000/01/rdf-schema#Class</title>
<path fill="none" stroke="#000000" d="M36.3855,-90.597C22.9456,-80.6944 11.3764,-67.3919 19.3445,-54 24.067,-46.0629 31.218,-39.7672 39.1016,-34.8107"/>
<polygon fill="#000000" stroke="#000000" points="40.8212,-37.8593 47.8636,-29.9438 37.4221,-31.74 40.8212,-37.8593"/>
<text text-anchor="middle" x="41.82" y="-58.2" font-family="Times,serif" font-size="14.00" fill="#000000">rdf:type</text>
</g>
<!-- Rhttp://www.w3.org/2000/01/rdf&#45;schema#Class&#45;&gt;Rhttp://www.w3.org/2000/01/rdf&#45;schema#Resource -->
<g id="edge3" class="edge">
<title>Rhttp://www.w3.org/2000/01/rdf-schema#Class-&gt;Rhttp://www.w3.org/2000/01/rdf-schema#Resource</title>
<path fill="none" stroke="#000000" d="M81.4182,-35.9433C78.5163,-48.2141 74.6108,-64.7287 71.3003,-78.7274"/>
<polygon fill="#000000" stroke="#000000" points="67.8066,-78.2929 68.9112,-88.83 74.6187,-79.9039 67.8066,-78.2929"/>
<text text-anchor="middle" x="122.7611" y="-58.2" font-family="Times,serif" font-size="14.00" fill="#000000">rdfs:subClassOf</text>
</g>
<!-- Rhttp://www.w3.org/2000/01/rdf&#45;schema#Class&#45;&gt;Rhttp://www.w3.org/2000/01/rdf&#45;schema#Class -->
<g id="edge2" class="edge">
<title>Rhttp://www.w3.org/2000/01/rdf-schema#Class-&gt;Rhttp://www.w3.org/2000/01/rdf-schema#Class</title>
<path fill="none" stroke="#000000" d="M129.9089,-26.2319C143.0735,-25.9861 153.3171,-23.2422 153.3171,-18 153.3171,-14.1912 147.9096,-11.7012 139.9031,-10.5301"/>
<polygon fill="#000000" stroke="#000000" points="140.1461,-7.0385 129.9089,-9.7681 139.6139,-14.0183 140.1461,-7.0385"/>
<text text-anchor="middle" x="175.4756" y="-13.8" font-family="Times,serif" font-size="14.00" fill="#000000">rdf:type</text>
</g>
<!-- Rhttp://www.w3.org/1999/02/22&#45;rdf&#45;syntax&#45;ns#Property -->
<g id="node3" class="node">
<title>Rhttp://www.w3.org/1999/02/22-rdf-syntax-ns#Property</title>
<g id="a_node3"><a xlink:href="http://www.w3.org/1999/02/22-rdf-syntax-ns#Property" xlink:title="rdf:Property">
<ellipse fill="none" stroke="#0000ff" cx="190.6615" cy="-195.6" rx="58.4648" ry="18"/>
<text text-anchor="middle" x="190.6615" y="-191.4" font-family="Times,serif" font-size="14.00" fill="#000000">rdf:Property</text>
</a>
</g>
</g>
<!-- Rhttp://www.w3.org/1999/02/22&#45;rdf&#45;syntax&#45;ns#Property&#45;&gt;Rhttp://www.w3.org/2000/01/rdf&#45;schema#Resource -->
<g id="edge5" class="edge">
<title>Rhttp://www.w3.org/1999/02/22-rdf-syntax-ns#Property-&gt;Rhttp://www.w3.org/2000/01/rdf-schema#Resource</title>
<path fill="none" stroke="#000000" d="M145.8045,-184.0633C121.8331,-177.1433 95.4448,-168.0683 86.4623,-159.6 79.3843,-152.9272 74.5298,-143.6166 71.2339,-134.6691"/>
<polygon fill="#000000" stroke="#000000" points="74.4912,-133.3611 68.1396,-124.8813 67.8168,-135.4712 74.4912,-133.3611"/>
<text text-anchor="middle" x="131.7611" y="-147" font-family="Times,serif" font-size="14.00" fill="#000000">rdfs:subClassOf</text>
</g>
<!-- Rhttp://www.w3.org/1999/02/22&#45;rdf&#45;syntax&#45;ns#Property&#45;&gt;Rhttp://www.w3.org/2000/01/rdf&#45;schema#Class -->
<g id="edge4" class="edge">
<title>Rhttp://www.w3.org/1999/02/22-rdf-syntax-ns#Property-&gt;Rhttp://www.w3.org/2000/01/rdf-schema#Class</title>
<path fill="none" stroke="#000000" d="M193.5285,-177.3708C197.0659,-148.1509 199.5727,-90.422 171.6615,-54 163.4238,-43.2504 151.3839,-35.6819 138.9072,-30.3634"/>
<polygon fill="#000000" stroke="#000000" points="139.9278,-27.0069 129.3368,-26.7195 137.4369,-33.5488 139.9278,-27.0069"/>
<text text-anchor="middle" x="217.82" y="-102.6" font-family="Times,serif" font-size="14.00" fill="#000000">rdf:type</text>
</g>
<!-- Rhttp://www.w3.org/2000/01/rdf&#45;schema#comment -->
<g id="node4" class="node">
<title>Rhttp://www.w3.org/2000/01/rdf-schema#comment</title>
<g id="a_node4"><a xlink:href="http://www.w3.org/2000/01/rdf-schema#comment" xlink:title="rdfs:comment">
<ellipse fill="none" stroke="#0000ff" cx="190.6615" cy="-284.4" rx="64.8447" ry="18"/>
<text text-anchor="middle" x="190.6615" y="-280.2" font-family="Times,serif" font-size="14.00" fill="#000000">rdfs:comment</text>
</a>
</g>
</g>
<!-- Rhttp://www.w3.org/2000/01/rdf&#45;schema#comment&#45;&gt;Rhttp://www.w3.org/2000/01/rdf&#45;schema#Resource -->
<g id="edge7" class="edge">
<title>Rhttp://www.w3.org/2000/01/rdf-schema#comment-&gt;Rhttp://www.w3.org/2000/01/rdf-schema#Resource</title>
<path fill="none" stroke="#000000" d="M141.8807,-272.5819C111.4222,-262.4065 74.5805,-244.3465 56.0093,-213.6 41.6638,-189.8495 46.9721,-157.5196 53.9018,-134.6702"/>
<polygon fill="#000000" stroke="#000000" points="57.3147,-135.4972 57.135,-124.9039 50.6694,-133.2972 57.3147,-135.4972"/>
<text text-anchor="middle" x="90.4876" y="-191.4" font-family="Times,serif" font-size="14.00" fill="#000000">rdfs:domain</text>
</g>
<!-- Rhttp://www.w3.org/2000/01/rdf&#45;schema#comment&#45;&gt;Rhttp://www.w3.org/1999/02/22&#45;rdf&#45;syntax&#45;ns#Property -->
<g id="edge6" class="edge">
<title>Rhttp://www.w3.org/2000/01/rdf-schema#comment-&gt;Rhttp://www.w3.org/1999/02/22-rdf-syntax-ns#Property</title>
<path fill="none" stroke="#000000" d="M190.6615,-266.0006C190.6615,-253.8949 190.6615,-237.8076 190.6615,-224.0674"/>
<polygon fill="#000000" stroke="#000000" points="194.1616,-223.672 190.6615,-213.672 187.1616,-223.6721 194.1616,-223.672"/>
<text text-anchor="middle" x="212.82" y="-235.8" font-family="Times,serif" font-size="14.00" fill="#000000">rdf:type</text>
</g>
<!-- Rhttp://www.w3.org/2000/01/rdf&#45;schema#Literal -->
<g id="node5" class="node">
<title>Rhttp://www.w3.org/2000/01/rdf-schema#Literal</title>
<g id="a_node5"><a xlink:href="http://www.w3.org/2000/01/rdf-schema#Literal" xlink:title="rdfs:Literal">
<ellipse fill="none" stroke="#0000ff" cx="321.6615" cy="-195.6" rx="54.445" ry="18"/>
<text text-anchor="middle" x="321.6615" y="-191.4" font-family="Times,serif" font-size="14.00" fill="#000000">rdfs:Literal</text>
</a>
</g>
</g>
<!-- Rhttp://www.w3.org/2000/01/rdf&#45;schema#comment&#45;&gt;Rhttp://www.w3.org/2000/01/rdf&#45;schema#Literal -->
<g id="edge8" class="edge">
<title>Rhttp://www.w3.org/2000/01/rdf-schema#comment-&gt;Rhttp://www.w3.org/2000/01/rdf-schema#Literal</title>
<path fill="none" stroke="#000000" d="M215.3016,-267.6974C236.2007,-253.5307 266.34,-233.1004 289.2028,-217.6025"/>
<polygon fill="#000000" stroke="#000000" points="291.2609,-220.4358 297.5745,-211.9277 287.3331,-214.6416 291.2609,-220.4358"/>
<text text-anchor="middle" x="296.0346" y="-235.8" font-family="Times,serif" font-size="14.00" fill="#000000">rdfs:range</text>
</g>
</g>
</svg>