<?xml version="1.0" encoding="UTF-8" standalone="no"?><!DOCTYPE svg PUBLIC "-//W3C//DTD SVG 1.1//EN" "http://www.w3.org/Graphics/SVG/1.1/DTD/svg11.dtd"><!-- Generated by graphviz version 2.40.1 (20161225.0304)
 --><!-- Title: %0 Pages: 1 --><svg xmlns="http://www.w3.org/2000/svg" xmlns:xlink="http://www.w3.org/1999/xlink" width="352pt" height="310pt" viewBox="0.00 0.00 352.45 310.40">
<g id="graph0" class="graph" transform="scale(1 1) rotate(0) translate(4 306.4)">
<title>%0</title>
<polygon fill="#ffffff" stroke="transparent" points="-4,4 -4,-306.4 348.4465,-306.4 348.4465,4 -4,4"/>
<!-- Rhttp://www.w3.org/2000/01/rdf&#45;schema#Resource -->
<g id="node1" class="node">
<title>Rhttp://www.w3.org/2000/01/rdf-schema#Resource</title>
<g id="a_node1"><a xlink:href="http://www.w3.org/2000/01/rdf-schema#Resource" xlink:title="rdfs:Resource">
<ellipse fill="none" stroke="#0000ff" cx="178.1295" cy="-106.8" rx="64.8234" ry="18"/>
<text text-anchor="middle" x="178.1295" y="-102.6" font-family="Times,serif" font-size="14.00" fill="#000000">rdfs:Resource</text>
</a>
</g>
</g>
<!-- Rhttp://www.w3.org/2000/01/rdf&#45;schema#Class -->
<g id="node2" class="node">
<title>Rhttp://www.w3.org/2000/01/rdf-schema#Class</title>
<g id="a_node2"><a xlink:href="http://www.w3.org/2000/01/rdf-schema#Class" xlink:title="rdfs:Class">
<ellipse fill="none" stroke="#0000ff" cx="115.1295" cy="-18" rx="49.8117" ry="18"/>
<text text-anchor="middle" x="115.1295" y="-13.8" font-family="Times,serif" font-size="14.00" fill="#000000">rdfs:Class</text>
</a>
</g>
</g>
<!-- Rhttp://www.w3.org/2000/01/rdf&#45;schema#Resource&#45;&gt;Rhttp://www.w3.org/2000/01/rdf&#45;schema#Class -->
<g id="edge1" class="edge">
<title>Rhttp://www.w3.org/2000/01/rdf-schema#Resource-&gt;Rhttp://www.w3.org/2000/01/rdf-schema#Class</title>
<path fill="none" stroke="#000000" d="M139.0464,-92.3368C129.8544,-87.0108 121.1808,-79.9636 115.8125,-70.8 111.5768,-63.5698 110.2787,-54.7713 110.3606,-46.4463"/>
<polygon fill="#000000" stroke="#000000" points="113.8633,-46.5322 111.085,-36.3082 106.8811,-46.0333 113.8633,-46.5322"/>
<text text-anchor="middle" x="137.288" y="-58.2" font-family="Times,serif" font-size="14.00" fill="#000000">rdf:type</text>
</g>
<!-- Rhttp://www.w3.org/2000/01/rdf&#45;schema#Class&#45;&gt;Rhttp://www.w3.org/2000/01/rdf&#45;schema#Resource -->
<g id="edge3" class="edge">
<title>Rhttp://www.w3.org/2000/01/rdf-schema#Class-&gt;Rhttp://www.w3.org/2000/01/rdf-schema#Resource</title>
<path fill="none" stroke="#000000" d="M139.8898,-33.7576C147.2212,-39.406 154.7241,-46.304 160.1295,-54 165.274,-61.3247 169.05,-70.2424 171.7751,-78.6483"/>
<polygon fill="#000000" stroke="#000000" points="168.4805,-79.8569 174.5993,-88.5062 175.2098,-77.929 168.4805,-79.8569"/>
<text text-anchor="middle" x="213.2291" y="-58.2" font-family="Times,serif" font-size="14.00" fill="#000000">rdfs:subClassOf</text>
</g>
<!-- Rhttp://www.w3.org/2000/01/rdf&#45;schema#Class&#45;&gt;Rhttp://www.w3.org/2000/01/rdf&#45;schema#Class -->
<g id="edge2" class="edge">
<title>Rhttp://www.w3.org/2000/01/rdf-schema#Class-&gt;Rhttp://www.w3.org/2000/01/rdf-schema#Class</title>
<path fill="none" stroke="#000000" d="M159.3769,-26.2319C172.5415,-25.9861 182.7851,-23.2422 182.7851,-18 182.7851,-14.1912 177.3776,-11.7012 169.3711,-10.5301"/>
<polygon fill="#000000" stroke="#000000" points="169.614,-7.0385 159.3769,-9.7681 169.0818,-14.0183 169.614,-7.0385"/>
<text text-anchor="middle" x="204.9436" y="-13.8" font-family="Times,serif" font-size="14.00" fill="#000000">rdf:type</text>
</g>
<!-- Rhttp://www.w3.org/1999/02/22&#45;rdf&#45;syntax&#45;ns#Property -->
<g id="node3" class="node">
<title>Rhttp://www.w3.org/1999/02/22-rdf-syntax-ns#Property</title>
<g id="a_node3"><a xlink:href="http://www.w3.org/1999/02/22-rdf-syntax-ns#Property" xlink:title="rdf:Property">
<ellipse fill="none" stroke="#0000ff" cx="178.1295" cy="-195.6" rx="58.4648" ry="18"/>
<text text-anchor="middle" x="178.1295" y="-191.4" font-family="Times,serif" font-size="14.00" fill="#000000">rdf:Property</text>
</a>
</g>
</g>
<!-- Rhttp://www.w3.org/1999/02/22&#45;rdf&#45;syntax&#45;ns#Property&#45;&gt;Rhttp://www.w3.org/2000/01/rdf&#45;schema#Resource -->
<g id="edge5" class="edge">
<title>Rhttp://www.w3.org/1999/02/22-rdf-syntax-ns#Property-&gt;Rhttp://www.w3.org/2000/01/rdf-schema#Resource</title>
<path fill="none" stroke="#000000" d="M178.1295,-177.2006C178.1295,-165.0949 178.1295,-149.0076 178.1295,-135.2674"/>
<polygon fill="#000000" stroke="#000000" points="181.6296,-134.872 178.1295,-124.872 174.6296,-134.8721 181.6296,-134.872"/>
<text text-anchor="middle" x="223.2291" y="-147" font-family="Times,serif" font-size="14.00" fill="#000000">rdfs:subClassOf</text>
</g>
<!-- Rhttp://www.w3.org/1999/02/22&#45;rdf&#45;syntax&#45;ns#Property&#45;&gt;Rhttp://www.w3.org/2000/01/rdf&#45;schema#Class -->
<g id="edge4" class="edge">
<title>Rhttp://www.w3.org/1999/02/22-rdf-syntax-ns#Property-&gt;Rhttp://www.w3.org/2000/01/rdf-schema#Class</title>
<path fill="none" stroke="#000000" d="M222.4343,-183.8766C243.7431,-177.252 265.9892,-168.5268 272.1295,-159.6 288.1441,-136.3178 333.1443,-134.743 262.1295,-54 250.1541,-40.3842 208.3609,-30.9857 172.3837,-25.2149"/>
<polygon fill="#000000" stroke="#000000" points="172.8359,-21.7433 162.4202,-23.6829 171.7721,-28.662 172.8359,-21.7433"/>
<text text-anchor="middle" x="322.288" y="-102.6" font-family="Times,serif" font-size="14.00" fill="#000000">rdf:type</text>
</g>
<!-- Rhttp://www.w3.org/2000/01/rdf&#45;schema#subClassOf -->
<g id="node4" class="node">
<title>Rhttp://www.w3.org/2000/01/rdf-schema#subClassOf</title>
<g id="a_node4"><a xlink:href="http://www.w3.org/2000/01/rdf-schema#subClassOf" xlink:title="rdfs:subClassOf">
<ellipse fill="none" stroke="#0000ff" cx="82.1295" cy="-284.4" rx="73.0094" ry="18"/>
<text text-anchor="middle" x="82.1295" y="-280.2" font-family="Times,serif" font-size="14.00" fill="#000000">rdfs:subClassOf</text>
</a>
</g>
</g>
<!-- Rhttp://www.w3.org/2000/01/rdf&#45;schema#subClassOf&#45;&gt;Rhttp://www.w3.org/2000/01/rdf&#45;schema#Class -->
<g id="edge7" class="edge">
<title>Rhttp://www.w3.org/2000/01/rdf-schema#subClassOf-&gt;Rhttp://www.w3.org/2000/01/rdf-schema#Class</title>
<path fill="none" stroke="#000000" d="M61.2818,-267.0989C33.0001,-241.3886 -12.3036,-190.9409 3.3833,-142.8 17.4889,-99.5117 56.1301,-62.4975 84.0245,-40.2715"/>
<polygon fill="#000000" stroke="#000000" points="86.1834,-43.0265 91.937,-34.1301 81.8913,-37.4967 86.1834,-43.0265"/>
<text text-anchor="middle" x="32.5026" y="-147" font-family="Times,serif" font-size="14.00" fill="#000000">rdfs:range</text>
</g>
<!-- Rhttp://www.w3.org/2000/01/rdf&#45;schema#subClassOf&#45;&gt;Rhttp://www.w3.org/2000/01/rdf&#45;schema#Class -->
<g id="edge8" class="edge">
<title>Rhttp://www.w3.org/2000/01/rdf-schema#subClassOf-&gt;Rhttp://www.w3.org/2000/01/rdf-schema#Class</title>
<path fill="none" stroke="#000000" d="M83.1395,-266.3554C85.5123,-227.361 92.3137,-132.4208 106.1295,-54 106.5794,-51.4463 107.1103,-48.8057 107.6856,-46.1686"/>
<polygon fill="#000000" stroke="#000000" points="111.146,-46.7446 110.0472,-36.2069 104.3348,-45.1298 111.146,-46.7446"/>
<text text-anchor="middle" x="127.9556" y="-147" font-family="Times,serif" font-size="14.00" fill="#000000">rdfs:domain</text>
</g>
<!-- Rhttp://www.w3.org/2000/01/rdf&#45;schema#subClassOf&#45;&gt;Rhttp://www.w3.org/1999/02/22&#45;rdf&#45;syntax&#45;ns#Property -->
<g id="edge6" class="edge">
<title>Rhttp://www.w3.org/2000/01/rdf-schema#subClassOf-&gt;Rhttp://www.w3.org/1999/02/22-rdf-syntax-ns#Property</title>
<path fill="none" stroke="#000000" d="M101.096,-266.856C115.6533,-253.3905 135.9174,-234.6462 152.0084,-219.762"/>
<polygon fill="#000000" stroke="#000000" points="154.5647,-222.1652 159.529,-212.8054 149.8113,-217.0265 154.5647,-222.1652"/>
<text text-anchor="middle" x="160.288" y="-235.8" font-family="Times,serif" font-size="14.00" fill="#000000">rdf:type</text>
</g>
</g>
</svg>