<?xml version="1.0" encoding="UTF-8" standalone="no"?><!DOCTYPE svg PUBLIC "-//W3C//DTD SVG 1.1//EN" "http://www.w3.org/Graphics/SVG/1.1/DTD/svg11.dtd"><!-- Generated by graphviz version 2.40.1 (20161225.0304)
 --><!-- Title: %0 Pages: 1 --><svg xmlns="http://www.w3.org/2000/svg" xmlns:xlink="http://www.w3.org/1999/xlink" width="294pt" height="310pt" viewBox="0.00 0.00 294.02 310.40">
<g id="graph0" class="graph" transform="scale(1 1) rotate(0) translate(4 306.4)">
<title>%0</title>
<polygon fill="#ffffff" stroke="transparent" points="-4,4 -4,-306.4 290.0188,-306.4 290.0188,4 -4,4"/>
<!-- Rhttp://www.w3.org/2000/01/rdf&#45;schema#Resource -->
<g id="node1" class="node">
<title>Rhttp://www.w3.org/2000/01/rdf-schema#Resource</title>
<g id="a_node1"><a xlink:href="http://www.w3.org/2000/01/rdf-schema#Resource" xlink:title="rdfs:Resource">
<ellipse fill="none" stroke="#0000ff" cx="124.7018" cy="-106.8" rx="64.8234" ry="18"/>
<text text-anchor="middle" x="124.7018" y="-102.6" font-family="Times,serif" font-size="14.00" fill="#000000">rdfs:Resource</text>
</a>
</g>
</g>
<!-- Rhttp://www.w3.org/2000/01/rdf&#45;schema#Class -->
<g id="node2" class="node">
<title>Rhttp://www.w3.org/2000/01/rdf-schema#Class</title>
<g id="a_node2"><a xlink:href="http://www.w3.org/2000/01/rdf-schema#Class" xlink:title="rdfs:Class">
<ellipse fill="none" stroke="#0000ff" cx="90.7018" cy="-18" rx="49.8117" ry="18"/>
<text text-anchor="middle" x="90.7018" y="-13.8" font-family="Times,serif" font-size="14.00" fill="#000000">rdfs:Class</text>
</a>
</g>
</g>
<!-- Rhttp://www.w3.org/2000/01/rdf&#45;schema#Resource&#45;&gt;Rhttp://www.w3.org/2000/01/rdf&#45;schema#Class -->
<g id="edge1" class="edge">
<title>Rhttp://www.w3.org/2000/01/rdf-schema#Resource-&gt;Rhttp://www.w3.org/2000/01/rdf-schema#Class</title>
<path fill="none" stroke="#000000" d="M83.0845,-92.8802C73.3024,-87.5531 64.0786,-80.3695 58.3848,-70.8 52.8309,-61.4657 56.6986,-51.2726 63.4147,-42.3534"/>
<polygon fill="#000000" stroke="#000000" points="66.2582,-44.4181 70.1947,-34.5817 60.9833,-39.8163 66.2582,-44.4181"/>
<text text-anchor="middle" x="79.8603" y="-58.2" font-family="Times,serif" font-size="14.00" fill="#000000">rdf:type</text>
</g>
<!-- Rhttp://www.w3.org/2000/01/rdf&#45;schema#Class&#45;&gt;Rhttp://www.w3.org/2000/01/rdf&#45;schema#Resource -->
<g id="edge3" class="edge">
<title>Rhttp://www.w3.org/2000/01/rdf-schema#Class-&gt;Rhttp://www.w3.org/2000/01/rdf-schema#Resource</title>
<path fill="none" stroke="#000000" d="M97.5719,-35.9433C102.3163,-48.3344 108.7175,-65.0529 114.1106,-79.1384"/>
<polygon fill="#000000" stroke="#000000" points="110.977,-80.7426 117.8214,-88.83 117.5142,-78.2396 110.977,-80.7426"/>
<text text-anchor="middle" x="155.8014" y="-58.2" font-family="Times,serif" font-size="14.00" fill="#000000">rdfs:subClassOf</text>
</g>
<!-- Rhttp://www.w3.org/2000/01/rdf&#45;schema#Class&#45;&gt;Rhttp://www.w3.org/2000/01/rdf&#45;schema#Class -->
<g id="edge2" class="edge">
<title>Rhttp://www.w3.org/2000/01/rdf-schema#Class-&gt;Rhttp://www.w3.org/2000/01/rdf-schema#Class</title>
<path fill="none" stroke="#000000" d="M134.9492,-26.2319C148.1138,-25.9861 158.3574,-23.2422 158.3574,-18 158.3574,-14.1912 152.9498,-11.7012 144.9433,-10.5301"/>
<polygon fill="#000000" stroke="#000000" points="145.1863,-7.0385 134.9492,-9.7681 144.6541,-14.0183 145.1863,-7.0385"/>
<text text-anchor="middle" x="180.5159" y="-13.8" font-family="Times,serif" font-size="14.00" fill="#000000">rdf:type</text>
</g>
<!-- Rhttp://www.w3.org/1999/02/22&#45;rdf&#45;syntax&#45;ns#Property -->
<g id="node3" class="node">
<title>Rhttp://www.w3.org/1999/02/22-rdf-syntax-ns#Property</title>
<g id="a_node3"><a xlink:href="http://www.w3.org/1999/02/22-rdf-syntax-ns#Property" xlink:title="rdf:Property">
<ellipse fill="none" stroke="#0000ff" cx="124.7018" cy="-195.6" rx="58.4648" ry="18"/>
<text text-anchor="middle" x="124.7018" y="-191.4" font-family="Times,serif" font-size="14.00" fill="#000000">rdf:Property</text>
</a>
</g>
</g>
<!-- Rhttp://www.w3.org/1999/02/22&#45;rdf&#45;syntax&#45;ns#Property&#45;&gt;Rhttp://www.w3.org/2000/01/rdf&#45;schema#Resource -->
<g id="edge5" class="edge">
<title>Rhttp://www.w3.org/1999/02/22-rdf-syntax-ns#Property-&gt;Rhttp://www.w3.org/2000/01/rdf-schema#Resource</title>
<path fill="none" stroke="#000000" d="M124.7018,-177.2006C124.7018,-165.0949 124.7018,-149.0076 124.7018,-135.2674"/>
<polygon fill="#000000" stroke="#000000" points="128.2019,-134.872 124.7018,-124.872 121.2019,-134.8721 128.2019,-134.872"/>
<text text-anchor="middle" x="169.8014" y="-147" font-family="Times,serif" font-size="14.00" fill="#000000">rdfs:subClassOf</text>
</g>
<!-- Rhttp://www.w3.org/1999/02/22&#45;rdf&#45;syntax&#45;ns#Property&#45;&gt;Rhttp://www.w3.org/2000/01/rdf&#45;schema#Class -->
<g id="edge4" class="edge">
<title>Rhttp://www.w3.org/1999/02/22-rdf-syntax-ns#Property-&gt;Rhttp://www.w3.org/2000/01/rdf-schema#Class</title>
<path fill="none" stroke="#000000" d="M176.1631,-186.7977C191.4428,-181.5234 206.5321,-173.0887 215.7018,-159.6 231.4403,-136.4485 272.9422,-135.9979 204.7018,-54 196.5265,-44.1766 169.8348,-35.4734 144.3337,-29.0859"/>
<polygon fill="#000000" stroke="#000000" points="144.8288,-25.6052 134.2874,-26.6674 143.1905,-32.4108 144.8288,-25.6052"/>
<text text-anchor="middle" x="263.8603" y="-102.6" font-family="Times,serif" font-size="14.00" fill="#000000">rdf:type</text>
</g>
<!-- Rhttp://www.w3.org/2000/01/rdf&#45;schema#domain -->
<g id="node4" class="node">
<title>Rhttp://www.w3.org/2000/01/rdf-schema#domain</title>
<g id="a_node4"><a xlink:href="http://www.w3.org/2000/01/rdf-schema#domain" xlink:title="rdfs:domain">
<ellipse fill="none" stroke="#0000ff" cx="57.7018" cy="-284.4" rx="57.9042" ry="18"/>
<text text-anchor="middle" x="57.7018" y="-280.2" font-family="Times,serif" font-size="14.00" fill="#000000">rdfs:domain</text>
</a>
</g>
</g>
<!-- Rhttp://www.w3.org/2000/01/rdf&#45;schema#domain&#45;&gt;Rhttp://www.w3.org/2000/01/rdf&#45;schema#Class -->
<g id="edge7" class="edge">
<title>Rhttp://www.w3.org/2000/01/rdf-schema#domain-&gt;Rhttp://www.w3.org/2000/01/rdf-schema#Class</title>
<path fill="none" stroke="#000000" d="M52.1224,-266.303C40.7511,-225.9944 18.6382,-126.6578 51.7018,-54 53.7412,-49.5182 56.6286,-45.3389 59.921,-41.531"/>
<polygon fill="#000000" stroke="#000000" points="62.5676,-43.8322 67.1061,-34.2587 57.588,-38.9124 62.5676,-43.8322"/>
<text text-anchor="middle" x="63.0749" y="-147" font-family="Times,serif" font-size="14.00" fill="#000000">rdfs:range</text>
</g>
<!-- Rhttp://www.w3.org/2000/01/rdf&#45;schema#domain&#45;&gt;Rhttp://www.w3.org/1999/02/22&#45;rdf&#45;syntax&#45;ns#Property -->
<g id="edge6" class="edge">
<title>Rhttp://www.w3.org/2000/01/rdf-schema#domain-&gt;Rhttp://www.w3.org/1999/02/22-rdf-syntax-ns#Property</title>
<path fill="none" stroke="#000000" d="M53.5585,-266.0331C52.1449,-255.2585 52.2248,-241.8022 58.3848,-231.6 62.6221,-224.582 68.7505,-218.844 75.5923,-214.1794"/>
<polygon fill="#000000" stroke="#000000" points="77.7601,-216.9615 84.5514,-208.8296 74.1713,-210.9515 77.7601,-216.9615"/>
<text text-anchor="middle" x="79.8603" y="-235.8" font-family="Times,serif" font-size="14.00" fill="#000000">rdf:type</text>
</g>
<!-- Rhttp://www.w3.org/2000/01/rdf&#45;schema#domain&#45;&gt;Rhttp://www.w3.org/1999/02/22&#45;rdf&#45;syntax&#45;ns#Property -->
<g id="edge8" class="edge">
<title>Rhttp://www.w3.org/2000/01/rdf-schema#domain-&gt;Rhttp://www.w3.org/1999/02/22-rdf-syntax-ns#Property</title>
<path fill="none" stroke="#000000" d="M82.6267,-268.0595C89.7959,-262.4704 97.1649,-255.753 102.7018,-248.4 108.2833,-240.9876 112.7213,-231.9522 116.1068,-223.4661"/>
<polygon fill="#000000" stroke="#000000" points="119.4624,-224.4804 119.6032,-213.8865 112.8867,-222.0803 119.4624,-224.4804"/>
<text text-anchor="middle" x="145.5279" y="-235.8" font-family="Times,serif" font-size="14.00" fill="#000000">rdfs:domain</text>
</g>
</g>
</svg>