<?xml version="1.0" encoding="UTF-8" standalone="no"?><!DOCTYPE svg PUBLIC "-//W3C//DTD SVG 1.1//EN" "http://www.w3.org/Graphics/SVG/1.1/DTD/svg11.dtd"><!-- Generated by graphviz version 2.40.1 (20161225.0304)
 --><!-- Title: %0 Pages: 1 --><svg xmlns="http://www.w3.org/2000/svg" xmlns:xlink="http://www.w3.org/1999/xlink" width="286pt" height="310pt" viewBox="0.00 0.00 286.50 310.40">
<g id="graph0" class="graph" transform="scale(1 1) rotate(0) translate(4 306.4)">
<title>%0</title>
<polygon fill="#ffffff" stroke="transparent" points="-4,4 -4,-306.4 282.496,-306.4 282.496,4 -4,4"/>
<!-- Rhttp://www.w3.org/2000/01/rdf&#45;schema#Resource -->
<g id="node1" class="node">
<title>Rhttp://www.w3.org/2000/01/rdf-schema#Resource</title>
<g id="a_node1"><a xlink:href="http://www.w3.org/2000/01/rdf-schema#Resource" xlink:title="rdfs:Resource">
<ellipse fill="none" stroke="#0000ff" cx="117.179" cy="-106.8" rx="64.8234" ry="18"/>
<text text-anchor="middle" x="117.179" y="-102.6" font-family="Times,serif" font-size="14.00" fill="#000000">rdfs:Resource</text>
</a>
</g>
</g>
<!-- Rhttp://www.w3.org/2000/01/rdf&#45;schema#Class -->
<g id="node2" class="node">
<title>Rhttp://www.w3.org/2000/01/rdf-schema#Class</title>
<g id="a_node2"><a xlink:href="http://www.w3.org/2000/01/rdf-schema#Class" xlink:title="rdfs:Class">
<ellipse fill="none" stroke="#0000ff" cx="83.179" cy="-18" rx="49.8117" ry="18"/>
<text text-anchor="middle" x="83.179" y="-13.8" font-family="Times,serif" font-size="14.00" fill="#000000">rdfs:Class</text>
</a>
</g>
</g>
<!-- Rhttp://www.w3.org/2000/01/rdf&#45;schema#Resource&#45;&gt;Rhttp://www.w3.org/2000/01/rdf&#45;schema#Class -->
<g id="edge1" class="edge">
<title>Rhttp://www.w3.org/2000/01/rdf-schema#Resource-&gt;Rhttp://www.w3.org/2000/01/rdf-schema#Class</title>
<path fill="none" stroke="#000000" d="M75.5617,-92.8802C65.7797,-87.5531 56.5558,-80.3695 50.862,-70.8 45.3082,-61.4657 49.1759,-51.2726 55.8919,-42.3534"/>
<polygon fill="#000000" stroke="#000000" points="58.7354,-44.4181 62.6719,-34.5817 53.4605,-39.8163 58.7354,-44.4181"/>
<text text-anchor="middle" x="72.3375" y="-58.2" font-family="Times,serif" font-size="14.00" fill="#000000">rdf:type</text>
</g>
<!-- Rhttp://www.w3.org/2000/01/rdf&#45;schema#Class&#45;&gt;Rhttp://www.w3.org/2000/01/rdf&#45;schema#Resource -->
<g id="edge3" class="edge">
<title>Rhttp://www.w3.org/2000/01/rdf-schema#Class-&gt;Rhttp://www.w3.org/2000/01/rdf-schema#Resource</title>
<path fill="none" stroke="#000000" d="M90.0492,-35.9433C94.7935,-48.3344 101.1947,-65.0529 106.5879,-79.1384"/>
<polygon fill="#000000" stroke="#000000" points="103.4542,-80.7426 110.2986,-88.83 109.9914,-78.2396 103.4542,-80.7426"/>
<text text-anchor="middle" x="148.2786" y="-58.2" font-family="Times,serif" font-size="14.00" fill="#000000">rdfs:subClassOf</text>
</g>
<!-- Rhttp://www.w3.org/2000/01/rdf&#45;schema#Class&#45;&gt;Rhttp://www.w3.org/2000/01/rdf&#45;schema#Class -->
<g id="edge2" class="edge">
<title>Rhttp://www.w3.org/2000/01/rdf-schema#Class-&gt;Rhttp://www.w3.org/2000/01/rdf-schema#Class</title>
<path fill="none" stroke="#000000" d="M127.4264,-26.2319C140.591,-25.9861 150.8346,-23.2422 150.8346,-18 150.8346,-14.1912 145.4271,-11.7012 137.4206,-10.5301"/>
<polygon fill="#000000" stroke="#000000" points="137.6636,-7.0385 127.4264,-9.7681 137.1314,-14.0183 137.6636,-7.0385"/>
<text text-anchor="middle" x="172.9931" y="-13.8" font-family="Times,serif" font-size="14.00" fill="#000000">rdf:type</text>
</g>
<!-- Rhttp://www.w3.org/1999/02/22&#45;rdf&#45;syntax&#45;ns#Property -->
<g id="node3" class="node">
<title>Rhttp://www.w3.org/1999/02/22-rdf-syntax-ns#Property</title>
<g id="a_node3"><a xlink:href="http://www.w3.org/1999/02/22-rdf-syntax-ns#Property" xlink:title="rdf:Property">
<ellipse fill="none" stroke="#0000ff" cx="117.179" cy="-195.6" rx="58.4648" ry="18"/>
<text text-anchor="middle" x="117.179" y="-191.4" font-family="Times,serif" font-size="14.00" fill="#000000">rdf:Property</text>
</a>
</g>
</g>
<!-- Rhttp://www.w3.org/1999/02/22&#45;rdf&#45;syntax&#45;ns#Property&#45;&gt;Rhttp://www.w3.org/2000/01/rdf&#45;schema#Resource -->
<g id="edge5" class="edge">
<title>Rhttp://www.w3.org/1999/02/22-rdf-syntax-ns#Property-&gt;Rhttp://www.w3.org/2000/01/rdf-schema#Resource</title>
<path fill="none" stroke="#000000" d="M117.179,-177.2006C117.179,-165.0949 117.179,-149.0076 117.179,-135.2674"/>
<polygon fill="#000000" stroke="#000000" points="120.6791,-134.872 117.179,-124.872 113.6791,-134.8721 120.6791,-134.872"/>
<text text-anchor="middle" x="162.2786" y="-147" font-family="Times,serif" font-size="14.00" fill="#000000">rdfs:subClassOf</text>
</g>
<!-- Rhttp://www.w3.org/1999/02/22&#45;rdf&#45;syntax&#45;ns#Property&#45;&gt;Rhttp://www.w3.org/2000/01/rdf&#45;schema#Class -->
<g id="edge4" class="edge">
<title>Rhttp://www.w3.org/1999/02/22-rdf-syntax-ns#Property-&gt;Rhttp://www.w3.org/2000/01/rdf-schema#Class</title>
<path fill="none" stroke="#000000" d="M168.6403,-186.7977C183.92,-181.5234 199.0093,-173.0887 208.179,-159.6 223.9175,-136.4485 265.4194,-135.9979 197.179,-54 189.0038,-44.1766 162.312,-35.4734 136.8109,-29.0859"/>
<polygon fill="#000000" stroke="#000000" points="137.3061,-25.6052 126.7646,-26.6674 135.6677,-32.4108 137.3061,-25.6052"/>
<text text-anchor="middle" x="256.3375" y="-102.6" font-family="Times,serif" font-size="14.00" fill="#000000">rdf:type</text>
</g>
<!-- Rhttp://www.w3.org/2000/01/rdf&#45;schema#range -->
<g id="node4" class="node">
<title>Rhttp://www.w3.org/2000/01/rdf-schema#range</title>
<g id="a_node4"><a xlink:href="http://www.w3.org/2000/01/rdf-schema#range" xlink:title="rdfs:range">
<ellipse fill="none" stroke="#0000ff" cx="50.179" cy="-284.4" rx="50.3586" ry="18"/>
<text text-anchor="middle" x="50.179" y="-280.2" font-family="Times,serif" font-size="14.00" fill="#000000">rdfs:range</text>
</a>
</g>
</g>
<!-- Rhttp://www.w3.org/2000/01/rdf&#45;schema#range&#45;&gt;Rhttp://www.w3.org/2000/01/rdf&#45;schema#Class -->
<g id="edge7" class="edge">
<title>Rhttp://www.w3.org/2000/01/rdf-schema#range-&gt;Rhttp://www.w3.org/2000/01/rdf-schema#Class</title>
<path fill="none" stroke="#000000" d="M44.5997,-266.303C33.2284,-225.9944 11.1155,-126.6578 44.179,-54 46.2185,-49.5182 49.1058,-45.3389 52.3982,-41.531"/>
<polygon fill="#000000" stroke="#000000" points="55.0448,-43.8322 59.5833,-34.2587 50.0653,-38.9124 55.0448,-43.8322"/>
<text text-anchor="middle" x="55.5521" y="-147" font-family="Times,serif" font-size="14.00" fill="#000000">rdfs:range</text>
</g>
<!-- Rhttp://www.w3.org/2000/01/rdf&#45;schema#range&#45;&gt;Rhttp://www.w3.org/1999/02/22&#45;rdf&#45;syntax&#45;ns#Property -->
<g id="edge6" class="edge">
<title>Rhttp://www.w3.org/2000/01/rdf-schema#range-&gt;Rhttp://www.w3.org/1999/02/22-rdf-syntax-ns#Property</title>
<path fill="none" stroke="#000000" d="M46.0358,-266.0331C44.6222,-255.2585 44.702,-241.8022 50.862,-231.6 55.0993,-224.582 61.2278,-218.844 68.0696,-214.1794"/>
<polygon fill="#000000" stroke="#000000" points="70.2374,-216.9615 77.0287,-208.8296 66.6485,-210.9515 70.2374,-216.9615"/>
<text text-anchor="middle" x="72.3375" y="-235.8" font-family="Times,serif" font-size="14.00" fill="#000000">rdf:type</text>
</g>
<!-- Rhttp://www.w3.org/2000/01/rdf&#45;schema#range&#45;&gt;Rhttp://www.w3.org/1999/02/22&#45;rdf&#45;syntax&#45;ns#Property -->
<g id="edge8" class="edge">
<title>Rhttp://www.w3.org/2000/01/rdf-schema#range-&gt;Rhttp://www.w3.org/1999/02/22-rdf-syntax-ns#Property</title>
<path fill="none" stroke="#000000" d="M74.6367,-268.4224C81.9519,-262.7622 89.5218,-255.9128 95.179,-248.4 100.7606,-240.9876 105.1985,-231.9522 108.5841,-223.4661"/>
<polygon fill="#000000" stroke="#000000" points="111.9396,-224.4804 112.0805,-213.8865 105.3639,-222.0803 111.9396,-224.4804"/>
<text text-anchor="middle" x="138.0051" y="-235.8" font-family="Times,serif" font-size="14.00" fill="#000000">rdfs:domain</text>
</g>
</g>
</svg>